<?xml version="1.0" encoding="UTF-8"?>
<svg width="8px" height="14px" viewBox="0 0 8 14" version="1.1" xmlns="http://www.w3.org/2000/svg" xmlns:xlink="http://www.w3.org/1999/xlink">
    <!-- Generator: Sketch 52.2 (67145) - http://www.bohemiancoding.com/sketch -->
    <title>Path</title>
    <desc>Created with Sketch.</desc>
    <g id="Page-1" stroke="none" stroke-width="1" fill="none" fill-rule="evenodd">
        <g id="8" transform="translate(-152.000000, -192.000000)" fill="#B1CD43">
            <g id="Group-6" transform="translate(122.000000, 175.000000)">
                <g id="Group-11">
                    <path d="M37.7827886,23.2772673 L31.7229522,17.2175417 C31.5827956,17.0772743 31.3956987,17 31.1962024,17 C30.9967062,17 30.8096093,17.0772743 30.6694527,17.2175417 L30.2231878,17.6636958 C29.9328001,17.9544156 29.9328001,18.4269184 30.2231878,18.7171954 L35.3117809,23.8057884 L30.2175417,28.9000276 C30.0773851,29.040295 30,29.2272812 30,29.4266667 C30,29.6262736 30.0773851,29.8132598 30.2175417,29.9536378 L30.6638065,30.3996813 C30.8040739,30.5399486 30.9910601,30.617223 31.1905563,30.617223 C31.3900525,30.617223 31.5771494,30.5399486 31.7173061,30.3996813 L37.7827886,24.3344202 C37.9232773,24.1937101 38.0004409,24.0058382 37.9999981,23.8061206 C38.0004409,23.6056279 37.9232773,23.4178668 37.7827886,23.2772673 Z" id="Path"></path>
                </g>
            </g>
        </g>
    </g>
</svg>