<?xml version="1.0" encoding="UTF-8"?>
<svg width="16px" height="12px" viewBox="0 0 16 12" version="1.1" xmlns="http://www.w3.org/2000/svg" xmlns:xlink="http://www.w3.org/1999/xlink">
    <!-- Generator: Sketch 52.2 (67145) - http://www.bohemiancoding.com/sketch -->
    <title>Path</title>
    <desc>Created with Sketch.</desc>
    <g id="Page-1" stroke="none" stroke-width="1" fill="none" fill-rule="evenodd">
        <g id="8" transform="translate(-759.000000, -382.000000)" fill="#E6F6A5">
            <g id="Group-3" transform="translate(540.000000, 296.000000)">
                <g id="check-(3)" transform="translate(219.000000, 86.000000)">
                    <path d="M7.19547826,11.3106087 C6.47478261,12.0313043 5.3053913,12.0313043 4.58504348,11.3106087 L0.540521739,7.26608696 C-0.180173913,6.54573912 -0.180173913,5.37634784 0.540521739,4.656 C1.26086957,3.93530432 2.43026087,3.93530432 3.15095652,4.656 L5.56069566,7.06539128 C5.7426087,7.24695656 6.03791304,7.24695656 6.22017391,7.06539128 L12.7450434,0.54052176 C13.4653913,-0.18017392 14.6347826,-0.18017392 15.3554782,0.54052176 C15.7015652,0.88660872 15.896,1.35617392 15.896,1.8455652 C15.896,2.33495656 15.7015652,2.80452176 15.3554782,3.15060872 L7.19547826,11.3106087 Z" id="Path"></path>
                </g>
            </g>
        </g>
    </g>
</svg>