<?xml version="1.0" encoding="UTF-8"?>
<svg width="30px" height="36px" viewBox="0 0 30 36" version="1.1" xmlns="http://www.w3.org/2000/svg" xmlns:xlink="http://www.w3.org/1999/xlink">
    <!-- Generator: Sketch 52.2 (67145) - http://www.bohemiancoding.com/sketch -->
    <title>Group 9</title>
    <desc>Created with Sketch.</desc>
    <g id="Page-1" stroke="none" stroke-width="1" fill="none" fill-rule="evenodd">
        <g id="3" transform="translate(-906.000000, -483.000000)">
            <g id="Group-10" transform="translate(881.000000, 466.000000)">
                <g id="Group-7" transform="translate(25.000000, 15.000000)">
                    <g id="Group-9">
                        <polygon id="Path" fill="#A4BF37" transform="translate(4.503476, 10.064917) scale(1, -1) translate(-4.503476, -10.064917) " points="4.8052172 7 7.00695186 8.27118644 4.20173466 13.1298331 2 11.8586467"></polygon>
                        <polygon id="Path" fill="#8AA61D" transform="translate(25.503476, 10.064917) scale(1, -1) translate(-25.503476, -10.064917) " points="25.2017347 7 28.0069518 11.8586468 25.8052172 13.1298332 23 8.27118644"></polygon>
                        <g id="alarm-clock">
                            <path d="M18.5982174,13.5844454 L10.6794683,6.65392872 L9.21859711,5.42817728 L9.97261921,4.529657 C12.0477317,2.05680213 15.7478278,1.73304683 18.2206826,3.80791109 L18.7773232,4.27517145 C19.9752675,5.2804515 20.7101722,6.69191533 20.8464771,8.24961531 C20.9827821,9.80756355 20.5041009,11.3252906 19.4990691,12.5232349 L18.5982174,13.5844454 Z" id="Path" fill="#FFBB30" transform="translate(15.043927, 8.012674) rotate(-40.000000) translate(-15.043927, -8.012674) "></path>
                            <path d="M18.5539735,11.945248 L13.7222549,7.89585671 L13.9755436,7.41314101 L14.9166925,6.41783502 C16.991805,3.94498015 16.8731895,4.08634066 18.3557346,2.31934422 L18.7330794,2.63597407 C19.9286529,3.63917934 20.6659284,5.05271795 20.8022333,6.61041793 C20.9385382,8.16836617 20.4598571,9.68609325 19.4548253,10.8840375 L18.5539735,11.945248 Z" id="Path" fill="#FF9F22" transform="translate(17.273634, 7.132296) rotate(-40.000000) translate(-17.273634, -7.132296) "></path>
                            <path d="M25.3100172,12.3695875 C22.5556144,9.6151847 18.8937533,8.09845074 14.9987586,8.09845074 L13.7265791,22.6805978 L14.9987586,37.262745 C18.8937533,37.262745 22.5556144,35.746011 25.3100172,32.9916082 C28.0641718,30.2374537 29.5809057,26.5755925 29.5809057,22.6805978 C29.5809057,18.7856031 28.0641718,15.1237421 25.3100172,12.3695875 Z" id="Path" fill="#9FBA35"></path>
                            <path d="M14.9987586,11.9122583 L13.7265791,22.6805978 L14.9987586,33.4489374 C20.9365897,33.4489374 25.7670981,28.6181806 25.7670981,22.6805978 C25.7670981,16.7430151 20.9365897,11.9122583 14.9987586,11.9122583 Z" id="Path" fill="#EFE2DD"></path>
                            <path d="M4.68774826,12.3695875 C1.93334549,15.1237421 0.416611525,18.7856031 0.416611525,22.6805978 C0.416611525,26.5755925 1.93334549,30.2374537 4.68774826,32.9916082 C7.44190284,35.746011 11.1037639,37.262745 14.9987586,37.262745 L14.9987586,8.09845074 C11.1037639,8.09845074 7.44190284,9.6151847 4.68774826,12.3695875 Z" id="Path" fill="#BBD555"></path>
                            <path d="M4.23041911,22.6805978 C4.23041911,28.6181806 9.06117585,33.4489374 14.9987586,33.4489374 L14.9987586,11.9122583 C9.06117585,11.9122583 4.23041911,16.7430151 4.23041911,22.6805978 Z" id="Path" fill="#FFF5F5"></path>
                            <polygon id="Path" fill="#FFBF6C" points="14.0453688 15.7283005 15.9523967 15.7283005 15.9523967 20.7775424 14.0453688 20.7775424"></polygon>
                            <polygon id="Path" fill="#DE9500" points="16.9018141 21.727208 21.951056 21.727208 21.951056 23.6339877 16.9018141 23.6339877"></polygon>
                            <path d="M14.9987586,19.8241525 L13.7265791,22.6805978 L14.9987586,25.5370431 C16.5738381,25.5370431 17.8552039,24.2556773 17.8552039,22.6805978 C17.8552039,21.1055184 16.5738381,19.8241525 14.9987586,19.8241525 Z" id="Path" fill="#FFA42E"></path>
                            <path d="M12.1423133,22.6805978 C12.1423133,24.2556773 13.4236792,25.5370431 14.9987586,25.5370431 L14.9987586,19.8239043 C13.4236792,19.8241525 12.1423133,21.1055184 12.1423133,22.6805978 Z" id="Path" fill="#FF9F22"></path>
                        </g>
                    </g>
                </g>
            </g>
        </g>
    </g>
</svg>