<?xml version="1.0" encoding="UTF-8"?>
<svg width="12px" height="12px" viewBox="0 0 12 12" version="1.1" xmlns="http://www.w3.org/2000/svg" xmlns:xlink="http://www.w3.org/1999/xlink">
    <!-- Generator: Sketch 52.2 (67145) - http://www.bohemiancoding.com/sketch -->
    <title>Shape</title>
    <desc>Created with Sketch.</desc>
    <g id="Page-1" stroke="none" stroke-width="1" fill="none" fill-rule="evenodd">
        <g id="10" transform="translate(-824.000000, -488.000000)" fill="#B1CD43" fill-rule="nonzero">
            <g id="Group-3" transform="translate(708.000000, 474.000000)">
                <path d="M127.572238,16.3590573 L123.943252,19.9884212 L127.572238,23.6176132 C128.112032,24.1576132 128.112032,25.032341 127.572238,25.572341 C127.30253,25.8420487 126.948926,25.9770057 126.595493,25.9770057 C126.241476,25.9770057 125.887837,25.842255 125.618335,25.572341 L121.988559,21.9427364 L118.359057,25.5723066 C118.089384,25.8420143 117.735745,25.9769713 117.382003,25.9769713 C117.028364,25.9769713 116.674966,25.8422206 116.405052,25.5723066 C115.865258,25.0325473 115.865258,24.1577851 116.405052,23.6175788 L120.033934,19.9883868 L116.404845,16.3590573 C115.865052,15.8192636 115.865052,14.9443295 116.404845,14.4045358 C116.944536,13.8651547 117.818954,13.8651547 118.358851,14.4045358 L121.988524,18.0338997 L125.617923,14.4045358 C126.157923,13.8651547 127.032444,13.8651547 127.572032,14.4045358 C128.112032,14.9443295 128.112032,15.8192636 127.572238,16.3590573 Z" id="Shape"></path>
            </g>
        </g>
    </g>
</svg>