<?xml version="1.0" encoding="UTF-8"?>
<svg width="18px" height="20px" viewBox="0 0 18 20" version="1.1" xmlns="http://www.w3.org/2000/svg" xmlns:xlink="http://www.w3.org/1999/xlink">
    <!-- Generator: Sketch 52.2 (67145) - http://www.bohemiancoding.com/sketch -->
    <title>login (1)</title>
    <desc>Created with Sketch.</desc>
    <g id="Page-1" stroke="none" stroke-width="1" fill="none" fill-rule="evenodd">
        <g id="1-copy-2" transform="translate(-1752.000000, -39.000000)" fill="#000000">
            <g id="login-(1)" transform="translate(1761.000000, 48.580645) scale(-1, 1) translate(-1761.000000, -48.580645) translate(1752.000000, 39.000000)">
                <path d="M17.1290323,8.70956129 L6.45764516,8.70956129 L9.03524516,6.13196129 C9.3753871,5.79181935 9.3753871,5.24038065 9.03524516,4.90023871 C8.69516129,4.56009677 8.14366452,4.56009677 7.80352258,4.90023871 L3.73912258,8.96463871 C3.39898065,9.30472258 3.39898065,9.85621935 3.73912258,10.1963613 L7.80352258,14.2609935 C7.97359355,14.4310645 8.19644516,14.516129 8.41935484,14.516129 C8.64220645,14.516071 8.86517419,14.4310645 9.0351871,14.2610516 C9.37527097,13.9209097 9.37532903,13.369471 9.0351871,13.029329 L6.45747097,10.4514968 L17.1290323,10.4514968 C17.6100387,10.4514968 18,10.0615355 18,9.58052903 C18,9.09952258 17.6100387,8.70956129 17.1290323,8.70956129 Z" id="Path"></path>
                <path d="M8.41935484,17.4193548 L1.74193548,17.4193548 L1.74193548,1.74193548 L8.41935484,1.74193548 C8.90036129,1.74193548 9.29032258,1.35197419 9.29032258,0.870967742 C9.29032258,0.38996129 8.90036129,0 8.41935484,0 L0.870967742,0 C0.38996129,0 0,0.38996129 0,0.870967742 L0,18.2903226 C0,18.771329 0.38996129,19.1612903 0.870967742,19.1612903 L8.41935484,19.1612903 C8.90036129,19.1612903 9.29032258,18.771329 9.29032258,18.2903226 C9.29032258,17.8093161 8.90036129,17.4193548 8.41935484,17.4193548 Z" id="Path"></path>
            </g>
        </g>
    </g>
</svg>