<?xml version="1.0" encoding="UTF-8"?>
<svg width="95px" height="90px" viewBox="0 0 95 90" version="1.1" xmlns="http://www.w3.org/2000/svg" xmlns:xlink="http://www.w3.org/1999/xlink">
    <!-- Generator: Sketch 52.2 (67145) - http://www.bohemiancoding.com/sketch -->
    <title>star (6)</title>
    <desc>Created with Sketch.</desc>
    <g id="Page-1" stroke="none" stroke-width="1" fill="none" fill-rule="evenodd">
        <g id="8" transform="translate(-813.000000, -975.000000)" fill="#B1CD43" fill-rule="nonzero">
            <g id="Group-3" transform="translate(540.000000, 894.000000)">
                <g id="star-(6)" transform="translate(273.000000, 81.000000)">
                    <path d="M49.5276733,1.71404107 L59.4703081,32.585322 L91.9328472,32.5503973 C93.2839978,32.5503973 94.3928581,33.6243328 94.3928581,34.9754834 C94.3928581,35.7722039 93.9781269,36.4990749 93.388772,36.9509136 L67.092631,55.9717962 L77.1749648,86.8408944 C77.589696,88.1221955 76.8977498,89.4733461 75.6164486,89.8902601 C74.7848034,90.1674752 73.8833088,89.9601096 73.261212,89.4406042 L47.2051785,70.4175388 L20.978887,89.5431956 C19.8700268,90.339916 18.3464353,90.0976257 17.5846396,89.0236902 C17.1000589,88.3644858 16.9952847,87.5328406 17.237575,86.8408944 L17.2026503,86.8408944 L27.3199088,55.9717962 L1.02376784,36.9487308 C-0.0850924204,36.1520104 -0.327382754,34.6284189 0.469337712,33.5523006 C0.988843112,32.8254296 1.78556358,32.478365 2.61720878,32.5482145 L34.907307,32.5831392 L44.8848666,1.71185827 C45.2995978,0.43055714 46.6507484,-0.263571923 47.9342323,0.118417341 C48.7309528,0.397815203 49.2832001,0.984987273 49.5276733,1.71404107 Z M55.3819316,35.7700211 L47.2051785,10.3753748 L38.9935007,35.7722039 C38.6813609,36.77629 37.7471243,37.470419 36.6731888,37.470419 L9.99505857,37.4333115 L31.6134681,53.0599466 C32.4451133,53.6842262 32.8271026,54.7581617 32.4800381,55.7971725 L24.2006936,81.1590769 L45.7165118,65.4647751 C46.548157,64.8404955 47.7268667,64.8055708 48.6261786,65.4298504 L70.1747387,81.1590769 L61.9281362,55.9019467 C61.5461469,54.8978607 61.8582867,53.7191509 62.7597814,53.0599466 L84.4131157,37.4333115 L57.8048349,37.4682362 C56.7330822,37.5380857 55.7289961,36.8439566 55.3819316,35.7700211 Z" id="Shape"></path>
                </g>
            </g>
        </g>
    </g>
</svg>