<?xml version="1.0" encoding="UTF-8"?>
<svg width="247px" height="205px" viewBox="0 0 247 205" version="1.1" xmlns="http://www.w3.org/2000/svg" xmlns:xlink="http://www.w3.org/1999/xlink">
    <!-- Generator: Sketch 52.2 (67145) - http://www.bohemiancoding.com/sketch -->
    <title>2</title>
    <desc>Created with Sketch.</desc>
    <g id="Page-1" stroke="none" stroke-width="1" fill="none" fill-rule="evenodd">
        <g id="13" transform="translate(-837.000000, -154.000000)">
            <g id="2" transform="translate(837.000000, 154.000000)">
                <path d="M134,100.10532 C132.191489,101.62532 130,100.60532 128,100.89532 C129.819149,99.3653198 132.010638,100.40532 134,100.10532 Z" id="Path" fill="#FCFCFC"></path>
                <path d="M45.5147034,65.4783272 C48.5801465,63.1016283 49.0442805,63.2776801 49.7242907,67.1178092 C50.1668371,67.4589095 50.5014453,67.1178092 50.8792288,66.919751 C51.7103525,66.5236345 52.5846514,65.6763854 53.4373627,66.7767089 C54.2900739,67.8770325 53.9878472,69.1534078 53.7287956,70.3637637 C53.6900927,70.6041036 53.5406295,70.8109247 53.3269319,70.9198466 C53.1132342,71.0287686 52.8612485,71.0265663 52.6494142,70.9139254 C51.6887648,70.5068057 52.142105,69.5715307 52.0881359,68.8233107 C48.6449094,69.9236342 48.2347444,69.7805922 47.3280641,66.6226636 C44.3381777,68.5592331 43.7768994,68.3061587 43.2372087,64.5760619 C42.060683,64.6860942 40.8301882,65.9624695 39.6644563,64.7741201 C38.8333327,63.926871 38.9952399,62.7935378 39.0492089,61.7262239 C39.0492089,60.9229878 39.1787347,59.8886836 40.204147,60.0097192 C41.0676521,60.1197516 40.8949511,61.1100428 40.8193944,61.7922433 C40.7945332,62.2944049 40.7945332,62.7975251 40.8193944,63.2996866 C42.1362397,63.2116607 43.0537138,61.869266 44.31659,62.4194278 C45.5794662,62.9695895 45.2016828,64.4000101 45.5147034,65.4783272 Z" id="Path" fill="#5A1EBD"></path>
                <path d="M161.651087,84.0495203 C163.407784,87.5237985 163.136689,87.9498893 159.308824,87.9498893 C158.896759,88.3322784 159.189542,88.7255929 159.308824,89.1298328 C159.536544,90.0257159 160.20886,91.0527038 158.98351,91.6973026 C157.758159,92.3419014 156.587028,91.8284074 155.459271,91.3476897 C155.257206,91.2624551 155.102364,91.0922842 155.0356,90.8820765 C154.968836,90.6718688 154.996857,90.4427414 155.11227,90.2551494 C155.676148,89.3701917 156.511121,89.9820143 157.281032,90.0694175 C156.782216,86.4312582 157.042468,86.0597945 160.263079,85.6992562 C158.929291,82.4216352 159.265449,81.8644396 162.984876,81.9846191 C163.08247,80.7937501 162.073996,79.3406715 163.429472,78.3901614 C164.394571,77.7127864 165.468108,78.0733247 166.487426,78.3136836 C167.257337,78.48849 168.254967,78.7616251 167.940497,79.7667622 C167.680245,80.6080183 166.791053,80.2693308 166.107893,80.0617481 C165.628376,79.9462709 165.143409,79.8551112 164.654822,79.788613 C164.503009,81.1105868 165.652453,82.2686796 164.882542,83.4267723 C164.112632,84.5848651 162.757156,83.9293409 161.651087,84.0495203 Z" id="Path" fill="#5A1EBD"></path>
                <path d="M162.633571,28.8572679 C163.852186,31.1062246 163.662126,31.3899715 161.001298,31.3899715 C160.710619,31.6421909 160.923039,31.8944104 161.001298,32.157139 C161.157817,32.745651 161.627375,33.3972179 160.777699,33.8280928 C159.969845,34.1191145 159.063589,34.0374273 158.32929,33.6074008 C158.184025,33.5524495 158.0724,33.4394618 158.024833,33.2992259 C157.977266,33.15899 157.998714,33.0061193 158.083331,32.8822699 C158.474629,32.304267 159.055987,32.7036144 159.559085,32.7666693 C159.212506,30.4126211 159.391385,30.1709108 161.627375,29.9502188 C160.699439,27.8483901 160.934218,27.4700609 163.516787,27.5436249 C163.583867,26.7764574 162.87953,25.8306345 163.829826,25.2211042 C164.503161,24.9262986 165.280681,24.9262986 165.954016,25.2211042 C166.490654,25.3367048 167.172631,25.5153602 166.960212,26.1669271 C166.747793,26.818494 166.166435,26.4927106 165.685697,26.3560917 C165.353682,26.2807878 165.017863,26.2211613 164.679502,26.1774362 C164.578882,27.0286769 165.372659,27.7853352 164.836021,28.5314844 C164.299384,29.2776336 163.393808,28.7731947 162.633571,28.8572679 Z" id="Path" fill="#E45466"></path>
                <path d="M72.029059,84.5726993 C74.8485795,84.5726993 75.0365476,84.9380915 73.7207713,87.3359776 C73.8265034,87.7242068 74.1789434,87.6671143 74.4726435,87.7356253 C75.1305316,87.8840659 76.0116317,87.8041363 75.9998837,88.7861278 C75.8851522,89.6623718 75.3546808,90.4357617 74.5666275,90.8757143 C74.4407873,90.9775752 74.2749191,91.0198872 74.1138325,90.9912197 C73.9527458,90.9625522 73.8130629,90.8658633 73.7325193,90.7272737 C73.3565833,90.0764189 74.0379674,89.7681193 74.3434154,89.334216 C71.852839,88.4435726 71.700115,88.1923655 72.5812151,86.0228495 C69.9966547,85.7602239 69.7969386,85.3719947 71.1479589,83.0882936 C70.4195827,82.6315534 69.1390505,82.7799939 69.0098225,81.6153064 C68.9158385,80.7817555 69.5149866,80.2336672 70.0084027,79.6741605 C70.5018188,79.1146537 70.9012508,78.7264245 71.4416589,79.2402573 C71.982067,79.75409 71.3711709,80.1309007 70.9952348,80.4848744 C70.753998,80.7475831 70.5265797,81.0219775 70.3138507,81.3070068 C71.1009669,81.8436765 72.2405231,81.5011213 72.6634511,82.3689278 C73.0863792,83.2367342 72.3345071,83.8533335 72.029059,84.5726993 Z" id="Path" fill="#E45466"></path>
                <path d="M35,17.6273016 C41.2845745,16.6342857 41.2845745,16.6342857 46.1675532,11 C44.4042553,17.1307937 47.7047872,19.5485714 52,21.7073016 C47.2300532,21.7073016 43.3417553,22.6139683 41.8271277,28 C39.543883,21.6533333 39.543883,21.6533333 35,17.6273016 Z" id="Path" fill="#854BE5"></path>
                <path d="M120,6.60185185 C122.038835,4.99228395 122.038835,4.99228395 122.559871,2 C123.273463,4.54938272 124.983819,4.75462963 127,4.67901235 C125.300971,5.6404321 124.088997,6.73148148 124.734628,9 C122.514563,7.14197531 122.514563,7.14197531 120,6.60185185 Z" id="Path" fill="#E45466"></path>
                <path d="M171.27551,68 C171.857143,66.155496 171.857143,66.155496 171,64 C172.418367,65.383378 173.510204,64.847185 174.673469,64 C174.040816,65.2975871 173.744898,66.4772118 175,67.6782842 C173.763422,67.297201 172.436285,67.4118371 171.27551,68 Z" id="Path" fill="#854BE5"></path>
                <path d="M159.27551,4 C159.857143,2.15549598 159.857143,2.15549598 159,0 C160.418367,1.38337802 161.510204,0.847184987 162.673469,0 C162.040816,1.29758713 161.744898,2.4772118 163,3.67828418 C161.763422,3.29720099 160.436285,3.41183707 159.27551,4 Z" id="Path" fill="#854BE5"></path>
                <path d="M64,48.4774034 C65.294265,48.2160978 66.8427606,47.5929845 67.4667813,48.3970016 C68.24364,49.6475574 68.756363,51.0091326 68.9806091,52.4170875 C69.1192803,52.8994979 68.4837038,53 68.0445781,53 C67.1316591,53 66.2418519,52.9296485 65.8027263,52.0552798 L64,48.4774034 Z" id="Path" fill="#E45466"></path>
                <path d="M151.646933,46 C152.719138,46.7193859 154.166615,47.3111387 153.98434,48.4366295 C153.54187,50.0004687 152.844699,51.4661492 151.925706,52.7645477 C151.646933,53.2518736 151.164441,52.8805777 150.853501,52.5672967 C150.263788,51.9175289 149.781296,51.221349 150.102957,50.2466972 L151.646933,46 Z" id="Path" fill="#854BE5"></path>
                <path d="M65,23.9109306 C65.8892414,23.0071314 66.7888228,21.5634002 67.7090842,22.1268075 C68.9295117,23.0162609 70.0008728,24.1449979 70.8731291,25.4603006 C71.2246897,25.8828561 70.7697289,26.2936739 70.4285084,26.5166893 C69.7930066,27.1096782 68.8909018,27.162071 68.205405,26.6458035 L65,23.9109306 Z" id="Path" fill="#E45466"></path>
                <path d="M147.283139,102 C147.283139,102 142.85753,83.458493 169,68" id="Path" stroke="#854BE5" stroke-width="0.25"></path>
                <path d="M76.2955684,103 C76.2955684,103 83.9202096,63.8197714 49,54" id="Path" stroke="#854BE5" stroke-width="0.51"></path>
                <path d="M82,49 L68,30" id="Path" stroke="#854BE5" stroke-width="0.51"></path>
                <path d="M137,56 L141,33" id="Path" stroke="#854BE5" stroke-width="0.51"></path>
                <path d="M96,36 L89,14" id="Path" stroke="#E45466" stroke-width="0.25"></path>
                <path d="M201.801658,179.022253 L172,162.455202 L213.100088,150 L231.308574,155.362808 C232.258297,155.732656 240.543813,157.309953 245.270596,159.463778 C246.24671,159.910776 246.904409,160.848293 246.990436,161.915325 C247.076462,162.982357 246.577399,164.012479 245.685418,164.609028 L220.02106,179.174543 C215.872843,181.959287 206.277365,181.273979 201.801658,179.022253 Z" id="Path" fill="#D9D7FE"></path>
                <path d="M195.835114,178 C200.435648,177.45685 236.595192,160.358479 237.567751,159.641521 C238.540311,158.924562 237.567751,124 237.567751,124 L203.692084,130.7242 L188,141.587206 L188.994415,155.404949 L195.835114,178 Z" id="Path" fill="#9292EF"></path>
                <path d="M153.561283,124 C153.561283,124 152.298397,160.292851 153.561283,161.399004 C154.824169,162.505156 195.5024,179.539899 195.867973,178.986822 C196.233545,178.433746 195.723959,141.963911 195.723959,141.963911 L177.99924,126.046381 L153.561283,124 Z" id="Path" fill="#AEAAF9"></path>
                <path d="M154.002143,124.358479 C153.661199,125.086301 194.112509,142 195.86122,142 C197.60993,142 236.719462,125.640314 237.973254,124.358479 C239.227047,123.076645 195.9822,106 195.9822,106 C195.9822,106 154.761018,122.718165 154.002143,124.358479 Z" id="Path" fill="#C3C0F9"></path>
                <path d="M175,114.685621 L219.227884,133 C228.622588,129.008123 237.388773,125.136881 237.973185,124.533712 C239.230223,123.250609 195.873444,106 195.873444,106 C195.873444,106 185.464289,110.24411 175,114.685621 Z" id="Path" fill="#C3C0F9"></path>
                <path d="M213.777094,131.12717 C209.84662,128.182401 204.202022,126.212004 199.376273,124.133344 C192.476108,121.156096 186.154595,116.955469 178.533843,115.017551 C178.075287,114.898462 177.780502,115.418127 178.206303,115.591348 C184.844437,118.189674 190.467199,121.751545 196.897891,124.577224 C199.671059,125.800602 202.356883,127.240508 205.261067,128.312317 C208.16525,129.384126 210.108651,131.051385 212.903655,131.949973 C213.624242,132.177326 214.388501,131.581877 213.777094,131.12717 Z" id="Path" fill="#9292EF"></path>
                <path d="M124.419943,202.978215 L75,177.924218 L143.660775,157 L177.233389,171.31657 C179.100365,172.043411 179.682422,177.175351 178.024108,178.298651 L143.265415,201.821877 C137.655167,205.598869 130.447556,206.04112 124.419943,202.978215 Z" id="Path" fill="#D9D7FE"></path>
                <path d="M76.4199433,160.978215 L27,135.924218 L95.6607746,115 L129.233389,129.31657 C131.100365,130.043411 131.682422,135.175351 130.024108,136.298651 L95.265415,159.821877 C89.6551675,163.598869 82.4475555,164.04112 76.4199433,160.978215 Z" id="Path" fill="#D9D7FE"></path>
                <path d="M54.7878004,152 C54.7878004,152 83.2056785,137.176502 86.6872289,134.735243 C86.6872289,134.735243 88.816075,102.471041 87.6518623,100.370679 C86.4876496,98.2703172 60.010126,105.781036 60.010126,105.781036 L49.5654747,115.546071 L49,131.414252 L54.7878004,152 Z" id="Path" fill="#9292EF"></path>
                <path d="M22.1171256,102.769295 C22.1171256,102.769295 21.6954425,135.255521 22.4523097,137.530436 C23.2091768,139.805351 53.3757391,152.333869 54.5002274,151.993181 C55.6247157,151.652493 54.5002274,117.825496 54.5002274,117.825496 L44.314958,102 L22.1171256,102.769295 Z" id="Path" fill="#AEAAF9"></path>
                <path d="M22.0055856,103.082994 C21.5148315,104.171709 53.5229066,118.172583 54.7225278,117.998388 C55.922149,117.824194 86.4361504,101.232179 86.9923384,100.73137 C87.5485264,100.230561 57.6452413,92.5660084 55.1696593,92.0216509 C52.6940773,91.4772935 22.7580753,101.362825 22.0055856,103.082994 Z" id="Path" fill="#BCB8F9"></path>
                <path d="M35.1144475,97.4904096 C35.1144475,97.4904096 66.6467151,111.909173 67.0560814,111.701473 C67.4654476,111.493773 66.6799069,124.21814 67.0560814,124.917762 C67.4322558,125.617384 73.9931802,121.638286 74.5685058,121.102638 C75.1438314,120.56699 75.1438314,110.083598 74.5685058,107.700512 C73.9931802,105.317426 45.1383894,95.1510499 43.334965,94.167207 C41.5315405,93.1833642 33.9859242,96.8345143 35.1144475,97.4904096 Z" id="Path" fill="#D2D0FC"></path>
                <path d="M70.9893366,108.070161 C70.2867787,108.361191 69.6388272,108.744155 69.0677109,109.205917 C68.5901471,109.604428 67.7373546,110.202194 68.0784716,110.809923 C68.1635326,110.935357 68.3216248,111.008464 68.487812,110.999216 C68.8744112,110.999216 69.0563403,110.849774 69.2951222,110.640556 C69.549337,110.428465 69.823167,110.235191 70.113803,110.062715 C70.7126135,109.721802 71.2757643,109.335062 71.7966468,108.907034 C72.3538046,108.448746 71.6602,107.78124 70.9893366,108.070161 Z" id="Path" fill="#AEAAF9"></path>
                <path d="M109.317161,196 C114.425157,195.705158 157.996586,171.757435 159.498293,169.955623 C161,168.15381 161,102 161,102 L104.099551,116.829461 L100,147.51487 L109.317161,196 Z" id="Path" fill="#571ABC"></path>
                <path d="M60.7933602,102 C60.7933602,102 59.0082997,168.739047 60.7933602,171.140911 C62.5784207,173.542774 107.934195,196.567909 110.056675,195.989279 C112.179156,195.410648 110.056675,124.162648 110.056675,124.162648 L96.9299502,105.602795 L60.7933602,102 Z" id="Path" fill="#8144E5"></path>
                <path d="M60,133.193336 L94.904014,154.555309 C95.6636792,155.024592 96.5901388,155.128333 97.4328699,154.838479 C98.275601,154.548626 98.9475499,153.89512 99.2670157,153.054674 L110,124.995016 L96.8128272,105.630211 L60.6326353,102 C60.6326353,102 60.2290576,117.050481 60,133.193336 Z" id="Path" fill="#571ABC"></path>
                <path d="M109.467157,123.790501 L71.7164809,122.007037 L60,101.736447 C60,101.736447 104.341197,84.1410527 109.467157,85.0327847 C114.593118,85.9245166 161,101.725572 161,101.725572 L134.036793,130 L109.467157,123.790501 Z" id="Path" fill="#5017BF"></path>
                <path d="M110,124.39187 C110,124.39187 96.1572739,147.357608 94.9526062,147.986655 C93.7479386,148.615702 49.6242491,126.808735 49.0219153,124.39187 C48.4195815,121.975005 60.4334031,102 60.4334031,102 L110,124.39187 Z" id="Path" fill="#8144E5"></path>
                <path d="M134.775042,130 L162,101.73913 C162,101.73913 115.109508,85.9021739 110,85 L110,123.73913 L134.775042,130 Z" id="Path" fill="#4915AD"></path>
                <path d="M110,124.448267 C110,124.448267 123.277527,145.391128 125.68862,145.988863 C128.099713,146.586598 170.354397,122.931791 171.862707,121.415316 C173.371016,119.89884 161.954104,102 161.954104,102 L110,124.448267 Z" id="Path" fill="#8144E5"></path>
                <path d="M59.3662928,149.844948 C64.1857063,152.321772 67.6405838,156.815947 68.7846841,162.096584 C70.5118756,169.152738 73.8892157,175.702152 78.6411402,181.210447 C79.2586127,181.883121 79.9575655,182.476792 80.7219476,182.977824 C82.4226202,184.686503 84.2334903,186.282721 86.1429984,187.75629 C86.5263051,188.061762 87.2381602,188.247228 86.9205633,189 C82.7589485,187.690831 78.7835112,185.857995 74.6437997,184.516097 C70.5040881,183.1742 68.0180709,180.152202 65.8825054,176.682905 L64.2397627,173.573629 C62.7941491,171.751703 62.3451328,169.515207 61.8413584,167.355078 C61.0747451,164.082157 60.1219544,160.809235 59.2896314,157.536314 C58.2073826,154.651646 56.3832729,152.100887 54,150.139511 C54,149.484926 54.5256777,149.277641 55.0075488,149.201273 C56.486058,148.785737 58.0723809,149.019996 59.3662928,149.844948 Z" id="Path" fill="#B62E4B"></path>
                <path d="M86.5426636,188.786002 C85.6698279,187.61402 84.2755578,187.012191 83.1420048,186.051377 C82.0084519,185.090563 81.2716425,184.4465 80.3421291,183.622945 C80.1720962,183.475128 79.7980237,183.316752 80.1380896,183 L89.6032565,187.328943 C89.82085,187.422433 89.9709656,187.614191 90,187.835746 C89.2745261,187.899096 88.7644273,188.395341 88.1296377,188.648743 C87.4948481,188.902144 87.1434466,189.218896 86.5426636,188.786002 Z" id="Path" fill="#9B1B3A"></path>
                <path d="M59,148.971684 C57.7644435,148.648651 56.4848429,148.526722 55.2104418,148.610589 C54.6518654,148.676242 53.9947165,148.698127 53.6442372,149.299952 C53.0528032,149.00451 52.5489891,149.376548 52.088985,149.606335 C48.9534532,151.286918 46.1244572,153.484374 43.7212901,156.106042 C39.8112547,160.023374 36.3502709,164.389339 32.0568987,167.901807 C23.0430074,175.287838 13.0543455,177.016716 2.17853261,172.585098 C-0.526730004,171.490871 -0.493872563,171.337679 1.08328459,168.952265 C1.12505385,168.869841 1.17653022,168.792699 1.23661931,168.722477 C3.6790224,166.446486 3.54759264,164.028244 1.7404334,161.434927 C1.26145376,160.625145 0.837017618,159.784375 0.469945696,158.918205 C2.02004244,159.618711 3.61980447,160.20389 5.25617955,160.668968 C12.3314818,162.441615 19.2315443,162.36502 25.8030324,158.786898 C27.4187721,157.801587 28.9402859,156.669757 30.3483117,155.405737 C33.5313909,152.888841 36.8834039,150.592878 40.3807836,148.533993 C41.5025484,147.438448 42.938165,146.719397 44.4879637,146.476847 C48.0067905,145.685227 51.6762726,145.882164 55.0899646,147.045845 C56.3933097,147.516362 57.8718945,147.592958 58.9014277,148.687185 L59,148.971684 Z" id="Path" fill="#E45163"></path>
                <path d="M161.376315,129.599846 C163.108301,127.113734 165.447447,125.114566 168.170129,123.793466 C169.817954,123.031044 171.664139,122.810799 173.444419,123.164258 C176.361758,123.64323 179.226678,124.400998 182,125.427201 C180.65695,125.925734 179.220885,126.121711 177.793781,126.001215 C175.591236,126.391845 173.574441,127.487992 172.046016,129.12518 C168.632593,132.304339 166.639594,136.377636 164.998948,140.649631 C163.288997,145.298228 162.042339,150.10513 161.277215,155 C161.056994,155 160.935873,155 161.034972,154.712993 L161.376315,129.599846 Z" id="Path" fill="#E45163"></path>
                <path d="M177.494848,125.618312 C178.782927,125.099663 180.170018,124.903122 181.544416,125.044516 C185.509176,126.36866 187.608167,130.252815 186.844898,134.732835 C186.135796,138.294701 184.54217,141.600894 182.222878,144.321844 C180.685333,145.864069 180.426587,148.329821 181.608022,150.181181 C182.686172,150.865395 183.588411,151.812109 184.237061,152.939814 C181.780838,153.188713 179.309528,152.661932 177.145016,151.428083 C174.160665,149.659492 173.116902,145.708758 174.812804,142.600457 C175.712768,141.000359 176.722481,139.469941 177.834079,138.021126 C180.521413,134.312995 180.380509,129.161292 177.494848,125.618312 Z" id="Path" fill="#B62E4B"></path>
                <path d="M184.660066,153 C183.646339,152.233078 182.750001,151.319081 182,150.287523 C183.120737,150.100336 184.11892,149.462421 184.767327,148.518987 C186.480406,146.390935 187.439554,143.743832 187.491749,141 C188.167869,141.586723 188.808984,142.213502 189.411716,142.877034 C189.682711,143.346468 190.132128,143.682981 190.655114,143.80806 C191.1781,143.933139 191.728913,143.835846 192.179043,143.538879 C193.09404,143.131113 194.036779,142.790274 195,142.518987 C193.981023,148.128391 189.368812,152.848101 184.660066,153 Z" id="Path" fill="#E45163"></path>
                <ellipse id="Oval" fill="#D9D7FE" cx="110.5" cy="102" rx="30.5" ry="11"></ellipse>
                <path d="M141,79.368947 L141,103 L80,102.070254 L80.1092407,79.368947 C80.9831662,78.5388163 141,79.368947 141,79.368947 Z" id="Path" fill="#D9D7FE"></path>
                <ellipse id="Oval" fill="#E3E3FF" cx="110.5" cy="81" rx="30.5" ry="11"></ellipse>
                <ellipse id="Oval" fill="#D9D7FE" cx="111" cy="77" rx="20" ry="7"></ellipse>
                <path d="M131,62.2324505 L131,78 L91,77.3805606 L91.0767123,62.2775007 C91.6575342,61.6805863 131,62.2324505 131,62.2324505 Z" id="Path" fill="#D9D7FE"></path>
                <ellipse id="Oval" fill="#E3E3FF" cx="111" cy="63" rx="20" ry="7"></ellipse>
                <ellipse id="Oval" fill="#D9D7FE" cx="111" cy="61" rx="11" ry="4"></ellipse>
                <path d="M122,53.152027 L122,62 L100,61.6579392 L100,53.152027 C100.357635,52.8099662 122,53.152027 122,53.152027 Z" id="Path" fill="#D9D7FE"></path>
                <ellipse id="Oval" fill="#E3E3FF" cx="111" cy="53" rx="11" ry="4"></ellipse>
                <path d="M131.099879,74 L131.099879,77.1247906 L131.022826,77.1247906 C130.153225,80.7286432 121.534264,83.5485762 111.010987,83.5485762 C99.9153143,83.5485762 90.9220953,80.4020101 90.9220953,76.5259631 L90.9220953,74 C87.2235376,75.3718593 85,77.1356784 85,79.0519263 C85,83.4070352 96.6350459,87 110.99998,87 C125.364913,87 136.999959,83.4396985 136.999959,79.0519263 C137.010967,77.1247906 134.787429,75.3718593 131.099879,74 Z" id="Path" fill="#D9D7FE" style="mix-blend-mode: color-burn;"></path>
                <path d="M121.684451,60 L121.684451,61.678733 C121.198171,63.6214178 116.390625,65.1417798 110.522104,65.1417798 C104.333079,65.1417798 99.3155488,63.4524887 99.3155488,61.361991 L99.3155488,60 C97.2488567,60.7390649 96,61.6892911 96,62.7239819 C96,65.0889894 102.498476,67 110.5,67 C118.501524,67 125,65.0784314 125,62.7239819 C124.977896,61.6892911 123.695884,60.7390649 121.684451,60 Z" id="Path" fill="#D9D7FE" style="mix-blend-mode: color-burn;"></path>
                <ellipse id="Oval" fill="#A0A0A0" opacity="0.14" style="mix-blend-mode: multiply;" cx="112" cy="53.5" rx="8" ry="1.5"></ellipse>
                <polygon id="Path" fill="#FF9100" points="116.375 54 116.895 53.1410256 116.315 52 116.105 53.025641"></polygon>
                <path d="M116.98895,53 L105,53 L105,48.4639175 L107.850829,48.4639175 L107.850829,39.60879 C107.150652,39.7585515 106.434532,39.824144 105.718232,39.8041237 C105.479134,39.8211271 105.239098,39.8211271 105,39.8041237 L105,35.4633749 L105.364641,35.4633749 C106.572011,35.4724717 107.767039,35.2244172 108.867403,34.7362995 C109.797381,34.3772167 110.610784,33.7771502 111.220994,33 L114.237569,33 L114.237569,48.4639175 L117,48.4639175 L116.98895,53 Z" id="Path" fill="#FF9100"></path>
                <polygon id="Path" fill="#FF9100" points="105 35.5491803 105.395522 35 106 35.3442623 105.850746 36"></polygon>
                <polygon id="Path" fill="#FF9100" points="105 48.557377 105.395522 48 106 48.3442623 105.850746 49"></polygon>
                <polygon id="Path" fill="#FF9100" points="116.570248 48.964539 117 48 116.173554 48.8652482 116 50"></polygon>
                <path d="M116.98895,54 L105,54 L105,49.4905149 L107.850829,49.4905149 L107.850829,40.601626 C107.150652,40.7512251 106.434532,40.8167466 105.718232,40.796748 C105.479134,40.8137329 105.239098,40.8137329 105,40.796748 L105,36.4607046 L105.364641,36.4607046 C106.572011,36.4697915 107.767039,36.2220059 108.867403,35.7344173 C109.797381,35.3757238 110.610784,34.7763077 111.220994,34 L114.237569,34 L114.237569,49.4905149 L117,49.4905149 L116.98895,54 Z" id="Path" fill="#FFBB00"></path>
            </g>
        </g>
    </g>
</svg>