<?xml version="1.0" encoding="UTF-8"?>
<svg width="50px" height="47px" viewBox="0 0 50 47" version="1.1" xmlns="http://www.w3.org/2000/svg" xmlns:xlink="http://www.w3.org/1999/xlink">
    <!-- Generator: Sketch 52.2 (67145) - http://www.bohemiancoding.com/sketch -->
    <title>finish</title>
    <desc>Created with Sketch.</desc>
    <defs>
        <linearGradient x1="54.6177399%" y1="53.8390561%" x2="91.7954576%" y2="65.052893%" id="linearGradient-1">
            <stop stop-color="#E2EDF2" offset="0%"></stop>
            <stop stop-color="#9FC7E2" offset="100%"></stop>
        </linearGradient>
        <linearGradient x1="81.277298%" y1="60.7017428%" x2="65.8222851%" y2="55.5525508%" id="linearGradient-2">
            <stop stop-color="#E2EDF2" offset="0%"></stop>
            <stop stop-color="#9FC7E2" offset="100%"></stop>
        </linearGradient>
        <linearGradient x1="80.1398916%" y1="62.505091%" x2="64.4091015%" y2="56.393698%" id="linearGradient-3">
            <stop stop-color="#E2EDF2" offset="0%"></stop>
            <stop stop-color="#9FC7E2" offset="100%"></stop>
        </linearGradient>
        <linearGradient x1="66.5094413%" y1="55.294799%" x2="109.265806%" y2="68.5044709%" id="linearGradient-4">
            <stop stop-color="#654E48" offset="0%"></stop>
            <stop stop-color="#503837" offset="100%"></stop>
        </linearGradient>
        <linearGradient x1="-8.95861933%" y1="33.7100018%" x2="-38.4693279%" y2="25.0228214%" id="linearGradient-5">
            <stop stop-color="#E2EDF2" offset="0%"></stop>
            <stop stop-color="#9FC7E2" offset="100%"></stop>
        </linearGradient>
        <linearGradient x1="65.1435401%" y1="86.4779564%" x2="25.2469925%" y2="27.4080545%" id="linearGradient-6">
            <stop stop-color="#9FC7E2" stop-opacity="0" offset="0%"></stop>
            <stop stop-color="#9FC7E2" offset="100%"></stop>
        </linearGradient>
        <linearGradient x1="55.6198925%" y1="52.0964086%" x2="98.0231857%" y2="65.9541761%" id="linearGradient-7">
            <stop stop-color="#654E48" offset="0%"></stop>
            <stop stop-color="#503837" offset="100%"></stop>
        </linearGradient>
        <linearGradient x1="58.4179354%" y1="54.8833001%" x2="96.7628375%" y2="69.3055348%" id="linearGradient-8">
            <stop stop-color="#654E48" offset="0%"></stop>
            <stop stop-color="#503837" offset="100%"></stop>
        </linearGradient>
        <linearGradient x1="75.8023309%" y1="104.869549%" x2="31.9364549%" y2="18.3019069%" id="linearGradient-9">
            <stop stop-color="#3E2E28" stop-opacity="0" offset="0%"></stop>
            <stop stop-color="#503837" offset="100%"></stop>
        </linearGradient>
        <linearGradient x1="127.219614%" y1="208.263693%" x2="-101.341784%" y2="-139.3321%" id="linearGradient-10">
            <stop stop-color="#3E2E28" stop-opacity="0" offset="0%"></stop>
            <stop stop-color="#503837" offset="100%"></stop>
        </linearGradient>
        <linearGradient x1="35.5167789%" y1="99.7601226%" x2="62.9132988%" y2="-3.71394805%" id="linearGradient-11">
            <stop stop-color="#E2EDF2" offset="0%"></stop>
            <stop stop-color="#9FC7E2" offset="100%"></stop>
        </linearGradient>
        <linearGradient x1="56.1079809%" y1="48.9780716%" x2="92.9836302%" y2="59.8453604%" id="linearGradient-12">
            <stop stop-color="#E2EDF2" offset="0%"></stop>
            <stop stop-color="#9FC7E2" offset="100%"></stop>
        </linearGradient>
        <linearGradient x1="-33.7704649%" y1="35.7519761%" x2="100.968971%" y2="59.0704794%" id="linearGradient-13">
            <stop stop-color="#E2EDF2" offset="0%"></stop>
            <stop stop-color="#9FC7E2" offset="100%"></stop>
        </linearGradient>
        <linearGradient x1="54.7792006%" y1="50.7903444%" x2="90.9222199%" y2="62.3884471%" id="linearGradient-14">
            <stop stop-color="#E2EDF2" offset="0%"></stop>
            <stop stop-color="#9FC7E2" offset="100%"></stop>
        </linearGradient>
        <linearGradient x1="123.835462%" y1="78.2946022%" x2="205.26508%" y2="109.490098%" id="linearGradient-15">
            <stop stop-color="#E2EDF2" offset="0%"></stop>
            <stop stop-color="#9FC7E2" offset="100%"></stop>
        </linearGradient>
        <linearGradient x1="51.0186272%" y1="49.6241138%" x2="131.430719%" y2="74.0020902%" id="linearGradient-16">
            <stop stop-color="#E2EDF2" offset="0%"></stop>
            <stop stop-color="#9FC7E2" offset="100%"></stop>
        </linearGradient>
        <linearGradient x1="51.112312%" y1="49.4922152%" x2="139.432146%" y2="82.2798492%" id="linearGradient-17">
            <stop stop-color="#E2EDF2" offset="0%"></stop>
            <stop stop-color="#9FC7E2" offset="100%"></stop>
        </linearGradient>
        <linearGradient x1="45.2916635%" y1="74.023548%" x2="-4.30803474%" y2="4.12090449%" id="linearGradient-18">
            <stop stop-color="#9FC7E2" stop-opacity="0" offset="0%"></stop>
            <stop stop-color="#9FC7E2" offset="100%"></stop>
        </linearGradient>
        <linearGradient x1="96.9964825%" y1="26.5134706%" x2="19.1443188%" y2="65.4238021%" id="linearGradient-19">
            <stop stop-color="#654E48" offset="0%"></stop>
            <stop stop-color="#503837" offset="100%"></stop>
        </linearGradient>
        <linearGradient x1="-134.045929%" y1="16.4639083%" x2="85.2066494%" y2="56.757939%" id="linearGradient-20">
            <stop stop-color="#654E48" offset="0%"></stop>
            <stop stop-color="#503837" offset="100%"></stop>
        </linearGradient>
        <linearGradient x1="-108.75639%" y1="19.4331559%" x2="84.4968055%" y2="56.1569951%" id="linearGradient-21">
            <stop stop-color="#654E48" offset="0%"></stop>
            <stop stop-color="#503837" offset="100%"></stop>
        </linearGradient>
        <linearGradient x1="-5.7365449%" y1="31.3696214%" x2="144.499356%" y2="79.5828036%" id="linearGradient-22">
            <stop stop-color="#654E48" offset="0%"></stop>
            <stop stop-color="#503837" offset="100%"></stop>
        </linearGradient>
        <linearGradient x1="261.170794%" y1="482.323057%" x2="1.5086892%" y2="5.52454641%" id="linearGradient-23">
            <stop stop-color="#3E2E28" stop-opacity="0" offset="0%"></stop>
            <stop stop-color="#503837" offset="100%"></stop>
        </linearGradient>
        <linearGradient x1="85.4197415%" y1="103.728293%" x2="-155.447588%" y2="-159.146342%" id="linearGradient-24">
            <stop stop-color="#3E2E28" stop-opacity="0" offset="0%"></stop>
            <stop stop-color="#503837" offset="100%"></stop>
        </linearGradient>
        <linearGradient x1="188.076045%" y1="293.61619%" x2="-85.7107384%" y2="-113.70654%" id="linearGradient-25">
            <stop stop-color="#3E2E28" stop-opacity="0" offset="0%"></stop>
            <stop stop-color="#503837" offset="100%"></stop>
        </linearGradient>
        <linearGradient x1="23.1594329%" y1="47.1691653%" x2="76.9536908%" y2="52.8594322%" id="linearGradient-26">
            <stop stop-color="#E2EDF2" offset="0%"></stop>
            <stop stop-color="#9FC7E2" offset="100%"></stop>
        </linearGradient>
        <linearGradient x1="-42.7234982%" y1="34.191647%" x2="68.0301042%" y2="53.3687414%" id="linearGradient-27">
            <stop stop-color="#E2EDF2" offset="0%"></stop>
            <stop stop-color="#9FC7E2" offset="100%"></stop>
        </linearGradient>
        <linearGradient x1="46.9120308%" y1="49.6487077%" x2="55.3197542%" y2="50.6085139%" id="linearGradient-28">
            <stop stop-color="#FFD888" offset="0%"></stop>
            <stop stop-color="#FFBB30" offset="100%"></stop>
        </linearGradient>
    </defs>
    <g id="Page-1" stroke="none" stroke-width="1" fill="none" fill-rule="evenodd">
        <g id="3" transform="translate(-1794.000000, -30.000000)">
            <g id="finish" transform="translate(1794.000000, 30.000000)">
                <path d="M41.3552734,42.2109375 C33.9828125,41.5600586 27.0620117,39.2921875 20.728418,35.4514648 C19.784082,34.8788086 19.3576172,33.73125 19.6993164,32.680957 L27.2668945,9.41601562 C33.7232422,13.6708984 40.8219727,16.2421875 48.4125977,17.0806641 C49.7853516,17.2323242 50.471875,18.8173828 49.6366211,19.9172852 C47.9364258,22.155957 46.2254883,24.3861328 44.5037109,26.6082031 C43.1135742,28.4023438 42.4475586,30.6527344 42.6360352,32.9145508 C42.840918,35.3722656 43.0526367,37.8294922 43.2705078,40.2860352 C43.3678711,41.3833984 42.4525391,42.3078125 41.3552734,42.2109375 Z" id="Path" fill="url(#linearGradient-1)"></path>
                <path d="M23.4904297,26.9602539 C22.5460938,26.3875977 22.1196289,25.2400391 22.4613281,24.1897461 L19.6994141,32.6808594 C19.3577148,33.7311523 19.7841797,34.8786133 20.7285156,35.4513672 C24.9260742,37.996875 29.3816406,39.8506836 34.0555664,41.0014648 L36.8174805,32.5103516 C32.1436523,31.3594727 27.6878906,29.5057617 23.4904297,26.9602539 Z" id="Path" fill="url(#linearGradient-2)"></path>
                <path d="M26.4079102,17.9907227 C30.3289063,20.3685547 35.0177734,22.318457 39.7167969,23.5967773 L42.1946289,15.9791016 C42.1947266,15.9791016 42.1948242,15.9791016 42.1948242,15.9791016 C36.9219727,14.6807617 31.9269531,12.487207 27.2667969,9.41591797 L25.3789062,15.2201172 C25.037207,16.2705078 25.4636719,17.4179688 26.4079102,17.9907227 Z" id="Path" fill="url(#linearGradient-3)"></path>
                <path d="M42.6917969,33.5728516 C40.6985352,33.3384766 38.7395508,32.9836914 36.8174805,32.5103516 L34.0555664,41.0014648 C36.434082,41.5871094 38.8689453,41.9914062 41.3553711,42.2108398 C42.4526367,42.3077148 43.3678711,41.3833008 43.2706055,40.2860352 C43.0720703,38.0488281 42.8794922,35.8110352 42.6917969,33.5728516 Z" id="Path" fill="url(#linearGradient-4)"></path>
                <path d="M42.6360352,32.9145508 C42.4474609,30.6527344 43.1134766,28.4023438 44.5037109,26.6082031 C44.9517578,26.0299805 45.3970703,25.449707 45.8435547,24.8703125 C43.8419922,24.5891602 41.7786133,24.1576172 39.7168945,23.5966797 L36.8174805,32.5103516 C38.7396484,32.9836914 40.6985352,33.3383789 42.6917969,33.5728516 C42.6734375,33.353418 42.6542969,33.1339844 42.6360352,32.9145508 Z" id="Path" fill="url(#linearGradient-5)"></path>
                <path d="M38.1658203,14.7939453 C34.3641602,13.4886719 30.7233398,11.6939453 27.2668945,9.41601563 L19.6993164,32.680957 C19.3576172,33.73125 19.784082,34.8787109 20.728418,35.4514648 C27.0619141,39.2923828 33.9828125,41.5600586 41.3552734,42.2109375 C42.4525391,42.3078125 43.3678711,41.3833984 43.2705078,40.2861328 C43.0525391,37.8294922 42.840918,35.3722656 42.6360352,32.9146484 C42.4564453,30.7600586 43.0539062,28.6166992 44.3125,26.8672852 L38.1658203,14.7939453 Z" id="Path" fill="url(#linearGradient-6)"></path>
                <path d="M26.4079102,17.9907227 C25.4635742,17.4180664 25.0371094,16.2705078 25.3788086,15.2202148 L22.4612305,24.1897461 C22.1195312,25.2400391 22.5458984,26.3875 23.490332,26.9602539 C27.6878906,29.5057617 32.143457,31.3595703 36.8173828,32.5103516 L39.7167969,23.5966797 C35.0178711,22.3183594 30.3290039,20.368457 26.4079102,17.9907227 Z" id="Path" fill="url(#linearGradient-7)"></path>
                <path d="M49.6365234,19.9172852 C50.4717773,18.8174805 49.7851562,17.2323242 48.4125,17.0806641 C46.3007812,16.8474609 44.2271484,16.4795898 42.1946289,15.9791016 L39.7167969,23.5967773 C41.7785156,24.1576172 43.8417969,24.5892578 45.843457,24.8704102 C47.1130859,23.2234375 48.3788086,21.5734375 49.6365234,19.9172852 Z" id="Path" fill="url(#linearGradient-8)"></path>
                <path d="M39.7166016,23.5969727 L36.8172852,32.5102539 C32.1439453,31.3592773 27.6875977,29.505957 23.4901367,26.959668 C22.5458008,26.3871094 22.1198242,25.2396484 22.4614258,24.1897461 L25.3789063,15.2205078 C25.0374023,16.2704102 25.4632813,17.4178711 26.4076172,17.9904297 C30.3293945,20.3683594 35.0177734,22.3180664 39.7166016,23.5969727 Z" id="Path" fill="url(#linearGradient-9)"></path>
                <path d="M43.0506836,24.3898438 C41.9449219,24.1654297 40.8305664,23.8994141 39.7166016,23.596875 L40.8592773,20.0838867 L43.0506836,24.3898438 Z" id="Path" fill="url(#linearGradient-10)"></path>
                <path d="M31.8209961,33.8133789 C31.8209961,33.8133789 28.9091797,31.5400391 20.9176758,28.9352539 L19.6993164,32.6808594 C19.3563477,33.7350586 19.7897461,34.8823242 20.737793,35.4569336 C22.7799805,36.6947266 24.8832031,37.7686523 27.0428711,38.6777344 C28.5538086,39.3137695 30.2860352,38.5325195 30.7930664,36.9735352 L31.8209961,33.8133789 Z" id="Path" fill="url(#linearGradient-11)"></path>
                <path d="M29.7929688,33.8980469 C22.8773438,29.7171875 15.2624023,27.4095703 7.12490234,27.0329102 C9.83808594,18.6919922 12.5510742,10.3510742 15.2642578,2.01015625 C22.6675781,2.35292969 29.6382812,4.29365234 36.0433594,7.78935547 C38.1333008,8.92998047 39.1114258,11.4003906 38.3749023,13.6645508 C36.584668,19.1681641 30.8594727,36.7692383 30.8594727,36.7692383 C31.2136719,35.6807617 30.7724609,34.4901367 29.7929688,33.8980469 Z" id="Path" fill="url(#linearGradient-12)"></path>
                <path d="M33.9245117,14.3035156 C32.8711914,13.7287109 31.8023437,13.1967773 30.719043,12.7061523 L27.8804687,21.4326172 C28.9637695,21.9232422 30.0326172,22.4550781 31.0859375,23.0299805 C33.1758789,24.1706055 34.1540039,26.6410156 33.4174805,28.9051758 C34.5666016,25.3724609 35.6423828,22.0650391 36.2560547,20.1787109 C36.9925781,17.9145508 36.0144531,15.444043 33.9245117,14.3035156 Z" id="Path" fill="url(#linearGradient-13)"></path>
                <path d="M22.0295898,9.75068359 L19.1910156,18.4771484 C22.1791016,19.1774414 25.0789062,20.1639648 27.8804687,21.4326172 L30.719043,12.7061523 C27.9173828,11.4375 25.0176758,10.4509766 22.0295898,9.75068359 Z" id="Path" fill="url(#linearGradient-14)"></path>
                <path d="M13.1453125,8.52431641 C12.1991211,11.4331055 11.2529297,14.3419922 10.3067383,17.2507813 C13.3441406,17.3914063 16.3084961,17.8014648 19.1910156,18.4771484 L22.0295898,9.75068359 C19.1470703,9.07509766 16.1826172,8.66494141 13.1453125,8.52431641 Z" id="Path" fill="url(#linearGradient-15)"></path>
                <path d="M19.1911133,18.4771484 L16.009375,28.2588867 C18.997168,28.959082 21.897168,29.9453125 24.6991211,31.2133789 L27.8805664,21.4326172 C25.0789063,20.1639648 22.1791016,19.1774414 19.1911133,18.4771484 Z" id="Path" fill="url(#linearGradient-16)"></path>
                <path d="M30.719043,12.70625 L32.8378906,6.1921875 C30.0365234,4.92226563 27.1365234,3.93603516 24.1484375,3.23671875 L22.0295898,9.75068359 C25.0176758,10.4509766 27.9173828,11.4375 30.719043,12.70625 Z" id="Path" fill="url(#linearGradient-17)"></path>
                <path d="M30.8594727,36.7692383 C30.8594727,36.7691406 31.340332,35.290918 32.0662109,33.059375 L16.2884766,2.06914063 C15.9478516,2.04648438 15.6066406,2.02597656 15.2640625,2.01015625 C12.5508789,10.3510742 9.83789062,18.6919922 7.12470703,27.0329102 C15.262207,27.4095703 22.8771484,29.7170898 29.7927734,33.8980469 C30.7724609,34.4901367 31.2136719,35.6807617 30.8594727,36.7692383 Z" id="Path" fill="url(#linearGradient-18)"></path>
                <path d="M13.1453125,8.52431641 C16.1826172,8.66494141 19.1470703,9.07509766 22.0295898,9.75068359 L24.1484375,3.23671875 C21.265918,2.56132813 18.3013672,2.15078125 15.2637695,2.01005859 L7.12431641,27.0332031 C10.1620117,27.1739258 13.1267578,27.5834961 16.0092773,28.2588867 L19.1910156,18.4771484 C16.3084961,17.8015625 13.344043,17.3915039 10.3067383,17.2507812 C11.2529297,14.3418945 12.1991211,11.4331055 13.1453125,8.52431641 Z" id="Path" fill="url(#linearGradient-19)"></path>
                <path d="M36.2585937,20.1699219 C37.1236328,17.5105469 37.8919922,15.1481445 38.3746094,13.6648438 C39.1112305,11.4 38.1329102,8.92978516 36.043457,7.78964844 C34.9899414,7.21416016 33.9212891,6.68203125 32.8378906,6.19208984 L30.719043,12.7061523 C31.8023438,13.1967773 32.8711914,13.7286133 33.9245117,14.3035156 C36.0117187,15.4425781 36.9898437,17.9082031 36.2585937,20.1699219 Z" id="Path" fill="url(#linearGradient-20)"></path>
                <path d="M31.0859375,23.0299805 C30.0326172,22.4551758 28.9637695,21.9232422 27.8804687,21.4326172 L24.6990234,31.2133789 C26.4355469,32.0005859 28.1341797,32.8950195 29.7932617,33.8981445 C30.2821289,34.1945313 30.6375977,34.6395508 30.8257812,35.1474609 C31.0149414,35.6557617 31.0363281,36.2249023 30.8592773,36.7693359 C30.8592773,36.7693359 31.9989258,33.265918 33.4201172,28.8963867 C34.1513672,26.634668 33.1732422,24.169043 31.0859375,23.0299805 Z" id="Path" fill="url(#linearGradient-21)"></path>
                <path d="M22.0295898,9.75068359 L19.1910156,18.4771484 C22.1791016,19.1774414 25.0789062,20.1639648 27.8804687,21.4326172 L30.719043,12.7061523 C27.9173828,11.4375 25.0176758,10.4509766 22.0295898,9.75068359 Z" id="Path" fill="url(#linearGradient-22)"></path>
                <path d="M19.9788086,9.31894531 C17.746582,8.89707031 15.4672852,8.63164063 13.1454102,8.52392578 L15.2642578,2.01005859 C15.4545898,2.01884766 15.6432617,2.02861328 15.8328125,2.03964844 C15.9847656,2.04990234 16.1370117,2.05908203 16.2889648,2.06933594 L16.2897461,2.07080078 L19.9788086,9.31894531 Z" id="Path" fill="url(#linearGradient-23)"></path>
                <path d="M32.0657227,33.0595703 L30.8592773,36.7685547 C31.0030273,36.3267578 31.015918,35.8676758 30.9145508,35.4383789 C30.8992187,35.3727539 30.8801758,35.3073242 30.8595703,35.2424805 C30.8495117,35.2114258 30.8385742,35.1788086 30.8262695,35.1470703 C30.7557617,34.95625 30.6618164,34.7754883 30.5459961,34.6077148 C30.5076172,34.5510742 30.4662109,34.4959961 30.4225586,34.4438477 C30.4006836,34.4177734 30.3789062,34.3917969 30.3558594,34.3654297 C30.2873047,34.2888672 30.2138672,34.2157227 30.134082,34.146875 C30.0297852,34.0560547 29.915625,33.9722656 29.7932617,33.8984375 C29.5644531,33.7595703 29.3345703,33.6242188 29.1042969,33.4900391 C28.8447266,33.3374023 28.5834961,33.1893555 28.3208984,33.0420898 C28.2896484,33.0255859 28.2576172,33.0076172 28.2255859,32.9896484 C28.0460937,32.8895508 27.8662109,32.790625 27.6854492,32.694043 C27.5844727,32.6397461 27.4834961,32.5854492 27.380957,32.5319336 C27.2799805,32.4776367 27.1786133,32.4245117 27.0760742,32.3709961 C26.974707,32.3178711 26.871875,32.2654297 26.7689453,32.2130859 C26.7030273,32.1791016 26.6348633,32.1441406 26.5677734,32.1097656 C26.484375,32.0674805 26.399707,32.0248047 26.3147461,31.9833008 C26.2202148,31.9361328 26.1246094,31.8885742 26.0287109,31.8421875 C25.865625,31.7614258 25.7010742,31.6813477 25.5368164,31.6039063 C25.3303711,31.5051758 25.1230469,31.4086914 24.9155273,31.3133789 C24.8431641,31.2797852 24.771875,31.2463867 24.6991211,31.2139648 L27.2044922,23.5117188 L32.0657227,33.0595703 Z" id="Path" fill="url(#linearGradient-24)"></path>
                <path d="M25.672168,20.4998047 C23.5637695,19.6701172 21.4010742,18.9957031 19.1913086,18.4775391 L21.3164062,11.9443359 L25.672168,20.4998047 Z" id="Path" fill="url(#linearGradient-25)"></path>
                <path d="M36.2560547,20.1787109 C36.2570312,20.1758789 36.2577148,20.1729492 36.2586914,20.1701172 C35.3460937,22.9756836 34.3259766,26.1119141 33.4201172,28.896582 C33.4192383,28.8994141 33.418457,28.9023438 33.4174805,28.9051758 C34.5666992,25.3724609 35.6424805,22.0649414 36.2560547,20.1787109 Z" id="Path" fill="url(#linearGradient-26)"></path>
                <path d="M33.9245117,14.3035156 C32.8711914,13.7287109 31.8023438,13.1967773 30.719043,12.7061523 L27.8804687,21.4326172 C28.9637695,21.9232422 30.0326172,22.4550781 31.0859375,23.0299805 C33.1732422,24.1691406 34.1513672,26.634668 33.4201172,28.8964844 C34.3258789,26.1118164 35.3459961,22.9755859 36.2586914,20.1700195 C36.9898438,17.9082031 36.0117188,15.4425781 33.9245117,14.3035156 Z" id="Path" fill="url(#linearGradient-27)"></path>
                <path d="M0.622070312,47.0230469 C0.14921875,46.8692383 -0.109375,46.3613281 0.0444335937,45.8883789 L14.7674805,0.625 C14.9212891,0.152050781 15.4292969,-0.106445312 15.9021484,0.0473632813 C16.375,0.201171875 16.6335937,0.709082031 16.4797852,1.18203125 L1.75673828,46.4453125 C1.60292969,46.9181641 1.09492187,47.1768555 0.622070312,47.0230469 Z" id="Path" fill="url(#linearGradient-28)"></path>
            </g>
        </g>
    </g>
</svg>