<?xml version="1.0" encoding="utf-8"?>
<!-- Generator: Adobe Illustrator 21.1.0, SVG Export Plug-In . SVG Version: 6.00 Build 0)  -->
<svg version="1.1" id="Слой_1" xmlns="http://www.w3.org/2000/svg" xmlns:xlink="http://www.w3.org/1999/xlink" x="0px" y="0px"
	 viewBox="0 0 211 62" style="enable-background:new 0 0 211 62;" xml:space="preserve">
<style type="text/css">
	.st0{fill:#89B75E;}
	.st1{fill:#000105;}
	.st2{fill:#94948E;}
	.st3{fill:#5E5E5E;}
	.st4{opacity:0.4;fill:#5E5E5D;enable-background:new    ;}
	.st5{fill:#E1D4DD;}
	.st6{fill:#FFFFFF;}
	.st7{opacity:0.4;}
	.st8{fill:#DCD8CD;}
	.st9{fill:#1F201E;}
	.st10{fill:#5E5E5D;}
	.st11{opacity:0.9;}
	.st12{opacity:0.4;fill:#5E5E5E;enable-background:new    ;}
	.st13{fill:#5D5D5C;}
	.st14{opacity:0.8;fill:#FFFFFF;enable-background:new    ;}
	.st15{fill:#E7B34E;}
	.st16{fill:#8AA15E;}
	.st17{opacity:0.9;fill:#FFFFFF;enable-background:new    ;}
	.st18{fill:#141516;}
	.st19{fill:none;stroke:#141516;stroke-linecap:round;stroke-miterlimit:10;}
	.st20{fill:#CF9D49;}
	.st21{fill:#131415;}
	.st22{fill:#1D1D1B;}
	.st23{opacity:0.3;fill:#FFFFFF;enable-background:new    ;}
	.st24{fill:#555555;}
	.st25{fill:#9BC784;stroke:#000105;stroke-width:3;stroke-linecap:round;stroke-linejoin:round;}
	.st26{opacity:0.7;fill:#FFFFFF;enable-background:new    ;}
	.st27{fill:none;stroke:#000105;stroke-miterlimit:10;}
	.st28{opacity:0.9;fill:#5D5D5C;enable-background:new    ;}
	.st29{fill:none;stroke:#000105;stroke-width:3;stroke-miterlimit:10;}
	.st30{fill:#555555;stroke:#000105;stroke-width:3;stroke-miterlimit:10;}
	.st31{fill:#0C0C0C;}
</style>
<path class="st0" d="M52.4,36.1C52.4,48.8,41.5,59,28.9,59S6.6,48.7,6.6,36.1c0-12.6,10.2-22.9,22.9-22.9
	C42.2,13.2,52.4,23.4,52.4,36.1C52.4,36.1,52.4,36.1,52.4,36.1z"/>
<path class="st1" d="M28.9,59.5c-12.8,0-22.8-10.3-22.8-23.4c0-12.9,10.5-23.4,23.4-23.4s23.4,10.5,23.4,23.4c0,0,0,0,0,0
	c0,6.3-2.6,12.3-7.2,16.6C41.2,57.1,35.2,59.5,28.9,59.5z M29.5,13.7c-12.4,0-22.4,10-22.4,22.4c0,12.5,9.6,22.4,21.8,22.4
	c12.5,0,23-10.2,23-22.4C51.9,23.7,41.9,13.7,29.5,13.7C29.6,13.7,29.5,13.7,29.5,13.7z"/>
<path class="st2" d="M38.7,55.3c1.7-0.2,3.2-1.4,3.7-3.1c0.7-3.1-1.8-5.6-6.6-6c0.1,1.3,0.4,2.6,0.9,3.9c1.9,1,0.9,4.1,0.5,4.5
	C37,54.8,38.5,55.4,38.7,55.3z"/>
<path class="st3" d="M37.3,46.5c-0.1,0.1-0.2,0.3-0.3,0.5c-0.1,0.2-0.1,0.5,0,0.7c-0.1,0-0.6,0.3-0.7,0c-0.1-0.5-0.1-0.9-0.1-1.4
	L37.3,46.5c-0.2,0-0.3,0-0.5-0.1"/>
<path class="st2" d="M30.1,17.8c0,0-3.5-2.3-0.3-4.4c0.2,0.6,0.4,1.2,0.6,1.8c0.2-0.9,0.9-1.5,1.8-1.6c0,0-0.8,2.1-0.1,2.4
	c0.1-0.5,0.5-0.8,1-0.9c0,0-0.8-0.6,0.6-0.2c0,0-1.5,1.6-1.2,2.4c0,0.1,0.1,0.1,0.1,0.2C31.8,17.7,31,17.8,30.1,17.8z"/>
<path class="st2" d="M40.2,20.4c0,0,0.5-9.2,9.9-11.1c0,0-0.9,0.5-1.1,1.1c3.4-1.2,7.2-0.5,10,1.8c-0.8-0.3-1.6-0.4-2.4-0.4
	c3.8,2.6,5.5,7.3,4.5,11.8c0,0,0,2.4-0.5,1.7c-0.1,1.3-0.8,2.5-1.8,3.3c0,0-2.9,7-14.7,4.1C35.1,30.7,40.2,20.4,40.2,20.4z"/>
<path class="st4" d="M40.2,20.5c0,0,0.5-9.2,9.9-11.1c0,0-0.9,0.5-1.1,1.1c3.4-1.2,7.2-0.5,10,1.8c-0.8-0.3-1.6-0.4-2.4-0.4
	c0,0,7.8,5.6,3.9,13.2c0,0-0.1,2.7-1.8,3.9c0,0-2.7,6.6-14.5,3.8C35.1,30.8,40.2,20.5,40.2,20.5z"/>
<path class="st2" d="M19.5,20.6c0,0,2.6-8.4-3.9-11.9C15.9,9,16,9.4,16,9.9c0,0-4.4-3.9-8.3-1.9c0,0,1.7,0.2,1.9,0.5
	c0,0-7.5,1.5-8,8.5c0,0,0,5,1.7,6.1c0,0,2.2,4.3,9.9,5.7S19.5,20.6,19.5,20.6z"/>
<path class="st5" d="M18.6,19.1c0,0-0.7-6.3-6.2-7.9l0.6,1.6c-1.5-0.1-2.9,0.4-4,1.4c-1.5,1-2.6,2.6-3,4.4c-0.3,1.3-0.2,7.1,6.5,9.4
	S18.6,19.1,18.6,19.1z"/>
<path class="st6" d="M18.1,20.5c0,0,0-6.1-6-5.7l0.5,1.4c-0.5,0-1,0.1-1.4,0.3c-2.4,1.1-2.9,4.1-2.9,4.5c0,0-0.4,4.7,4.9,5.8
	c0.7,0.2,1.5,0.1,2.2-0.2C17,25.8,19,24.1,18.1,20.5z"/>
<path class="st3" d="M17.4,21c0.3-1.9-1-3.7-2.9-4c-0.1,0-0.3,0-0.4,0c0,0,0.3,0.5,0.6,1.1c-1.1,0-2.2,0.6-2.8,1.5
	c-0.9,1.6-0.3,3.6,1.3,4.4c0.5,0.2,1,0.4,1.5,0.4C15.4,24.7,17.4,21,17.4,21z"/>
<path class="st5" d="M42.4,22.7c0,0,0.7-6.3,6.2-7.9L48,16.4c1.5-0.1,2.9,0.4,4,1.4c1.5,1,2.6,2.6,3,4.4c0.3,1.3,0.2,7.1-6.5,9.4
	S42.4,22.7,42.4,22.7z"/>
<path class="st6" d="M42.9,24.1c0,0,0-6.1,6-5.7l-0.5,1.4c0.5,0,1,0.1,1.4,0.3c2.4,1.1,2.9,4.1,2.9,4.5c0,0,0.4,4.7-4.9,5.8
	c-0.7,0.2-1.5,0.1-2.2-0.2C44,29.4,42,27.7,42.9,24.1z"/>
<path class="st3" d="M43.6,24.6c-0.3-1.9,1-3.7,2.9-4c0.1,0,0.3,0,0.4,0c0,0-0.3,0.5-0.6,1.1c1.1,0,2.2,0.6,2.8,1.5
	c0.9,1.6,0.3,3.6-1.3,4.4c-0.5,0.2-1,0.4-1.5,0.4C45.6,28.3,43.6,24.6,43.6,24.6z"/>
<path class="st2" d="M11.9,34.7c0,0-1.1,8.8,11,9.9c14.1,1.3,17.5,1.7,20.4-1.8c1.6-1.9,6.9-17.5-2.4-23c-2.6-1.1-5.2-1.9-8-2.3
	c-1.3-0.2-1.5,0-2.7-0.2C23.7,16.5,19,17.9,18,18.9C16.4,20.7,12.1,30.6,11.9,34.7z"/>
<g class="st7">
	<path class="st3" d="M20.4,43.8c14.1,1.7,20,2.2,22.9-1.3c1.6-1.9,8.4-20.9-6.2-24.1c0,0,9.5,5.7,5.6,18.2
		C39.3,46.7,20.4,43.8,20.4,43.8z"/>
</g>
<path class="st8" d="M13.4,40c0.7,1.8,2.1,3.7,11.2,4.8c6.9,0.9,12.5,0.9,15.2-1c3.1-2.3,3.2-10-1.7-12.3s-15.4-4.3-21.8,0.6
	C13.7,34,12.6,37.6,13.4,40z"/>
<path class="st6" d="M21.5,28.9c-0.3,1.1-1.6,1.6-3.1,1.2s-2.2-1.1-1.9-2.5s1.8-2.8,3.2-2.5S21.8,27.4,21.5,28.9z"/>
<path class="st9" d="M21.6,29.2c-0.1,0.7-0.7,1.2-1.4,1.2c-0.1,0-0.2,0-0.3-0.1c-0.8-0.3-1.2-1.1-0.9-1.9c0,0,0,0,0,0
	c0.2-0.7,0.9-1.2,1.6-1C21.3,27.7,21.7,28.4,21.6,29.2z"/>
<path class="st9" d="M34.9,38.5c-0.7,2.9-4.9,3.2-8.8,2.2s-9.5-0.9-7.4-6.8c0.7-2.1,4.7-3.9,8.7-3.3C32.6,31.5,35.6,35.6,34.9,38.5z
	"/>
<path class="st6" d="M39.9,31.3c-0.4,1.3-1.9,1.8-3.6,1.3s-2.5-1.3-2-2.9c0.5-1.7,2.1-2.8,3.9-2.6C39.9,27.5,40.4,29.6,39.9,31.3z"
	/>
<path class="st9" d="M37.4,31.4c-0.1,0.8-0.9,1.4-1.8,1.3c-0.1,0-0.2,0-0.3-0.1c-0.9-0.4-1.3-1.4-1-2.3c0.3-0.8,1.1-1.2,1.9-1
	C37.1,29.5,37.7,30.4,37.4,31.4C37.4,31.3,37.4,31.3,37.4,31.4z"/>
<path class="st10" d="M51.9,9.7c5.7,1.2,4.9,2,5.2,2.1c0.4,0,0.9,0,1.3-0.1C55.6,9.7,55.3,10.1,51.9,9.7z"/>
<path class="st2" d="M23.3,44.6c-0.4,1.3-4.3,8.3-1.3,13.7c1.3,0.5,13.7,0.4,13.7,0.2s2.6-3.1,2.5-4.4s-2.2-7.7-2.5-8.7
	C35.4,46,23.3,44.6,23.3,44.6z"/>
<g class="st11">
	<path class="st6" d="M23.4,46.6c0-0.7,0.2-1.3,0.5-1.9c0.4-0.5-0.6-0.1-0.6-0.1l-0.6,2l0.8,0.4L23.4,46.6z"/>
</g>
<path class="st10" d="M35.6,45.6c0.1,0.2,0.4,1.2,0.4,1.2l-0.9-0.1c0,0-0.4-1-0.8-1.1S35.6,45.6,35.6,45.6z"/>
<path class="st12" d="M21.5,58.6c0,0,3.3,0.1,5.3,0.3c1.3,0.2,2.5,0.3,3.8,0.1c1.1-0.2,4.1,0,5.7-0.9c1.5-2.7,1.7-6,0.6-8.9
	c-0.2-1.1-0.4-1.9-0.4-1.9s0.4-0.2-0.1,4.5C35.7,56.9,29.8,60.1,21.5,58.6z"/>
<circle class="st6" cx="20.6" cy="28.3" r="0.5"/>
<circle class="st6" cx="36" cy="30.3" r="0.5"/>
<path class="st13" d="M57.8,12.6c1.4,2.3,2.3,4.8,2.7,7.4c0.3,2.5-0.1,5.1-1.1,7.4c0.6-1.3,1.2-2.7,1.9-4l-0.7-7L57.8,12.6z"/>
<path class="st2" d="M34,46.3"/>
<path class="st14" d="M16.4,10.8C14.6,9,12.2,8,9.7,8.2C5.3,8.3,8.5,7.7,8.5,7.7l3.8-0.3c0,0,2.9,1.7,3.1,1.8l0.7,0.7L16.4,10.8z"/>
<path class="st15" d="M27,59.2c0-0.5,1.2-8.7,0.5-9s-6.8-2.8-6.7-2.5S20,57.6,20,57.6L27,59.2z"/>
<path class="st16" d="M20.3,57.2c0,0,2.2-0.3,2.2-1.1s-2.3,0.4-2.3,0.5S20.3,57.2,20.3,57.2z"/>
<path class="st17" d="M23.2,17.5c0,0-4.8-1-6.6,3.3c-1.3,2.7-2.5,5.4-3.5,8.2c0,0-2.4,7.1-1,9.1c0.2-1.7,0.5-3.4,1-5.1
	c2.3-10.8,5-12.1,5.4-12.7C19.5,19,19.9,17.7,23.2,17.5z"/>
<path class="st13" d="M33.4,15.1c0,0-1.9,1.2-0.9,2.4h0.2L33.4,15.1z"/>
<path class="st14" d="M29.9,17.4c0,0-1.5-2.2-0.3-3.8c-0.5,0.2-0.9,0.6-1.1,1.1l0.4,2.3L29.9,17.4z"/>
<path class="st18" d="M35,45.9c-1.6,0-3.3-0.1-4.9-0.3c-5.5-0.5-9.8-1-10-1.1c-3-0.3-5.7-1.9-7.5-4.3c-1.8-2.7-2-6.5-0.5-11.2
	c-0.4-0.1-0.8-0.2-1.1-0.4c-4.1-1.4-5.8-2-8.4-5.9c-2-3.2-1.9-7.2,0.2-10.3c1.2-1.8,2.9-3.2,5-3.8H7.7L5.9,8.2l1.7-0.7
	C8.7,7,9.9,6.8,11.1,6.9c1.2,0.1,2.3,0.4,3.3,1l-0.3-0.5l1.7,0.9c1.1,0.5,2.1,1.2,2.9,2.1c1.4,1.8,2.1,4.2,1.9,6.5
	c2.5-0.3,5-0.4,7.5-0.4c-0.2-0.4-0.3-0.9-0.3-1.4c0.2-1,0.9-1.9,1.8-2.4l1-0.6l-0.2,1.2v0.6c0.6-0.6,1.4-0.8,2.2-0.7l1.1,0.1
	L33,14.1c-0.2,0.3-0.4,0.5-0.5,0.7c0.4-0.2,0.9-0.3,1.3-0.1l0.8,0.2L34,15.5c-0.4,0.4-0.6,0.9-0.8,1.4c2.2,0.5,4.4,1.1,6.6,1.8
	c0.4-1.9,1.5-5.8,5.2-8.1c1.5-1,3.2-1.5,5-1.7l1.4-0.1l-0.6,0.5c0.7-0.1,1.3-0.2,2-0.2c2.4,0.1,4.7,1,6.5,2.6l1.6,1.4l-2.1-0.5
	c-0.1,0-0.2,0-0.3-0.1c1.5,1.4,2.6,3.3,3,5.4c0.4,2.6,0.2,5.3-0.5,7.9c-1,2.3-2.6,4.4-4.5,6c-3.5,2.7-7.9,2.3-9.8,1.9
	c0,0.2-0.1,0.3-0.1,0.5c-0.3,2.5-1,4.9-2.1,7.2C43.2,44,41.5,45.9,35,45.9z M9.9,8L9.9,8l1.5,0.6L9.9,9C9.8,9,9.8,9,9.7,9.1
	c-1.1,0.3-4.3,1.1-5.9,4h0c-1.9,2.7-2,6.4-0.2,9.2c2.4,3.6,3.8,4.1,7.9,5.5c0.5,0.2,1,0.3,1.6,0.5l0.8-0.9l-0.8,2
	c-1.6,4.6-1.2,7.8,0.5,10.3c2.2,3.4,6.7,3.8,6.7,3.8l0,0c0,0,4.4,0.5,10,1.1c10.9,1.1,12.1-1.2,13.4-3.6c1-2.2,1.7-4.5,2-6.9
	c0.1-0.3,0.1-0.7,0.2-1l0.1-0.6l0.6,0.1c1.3,0.3,5.9,1.1,9.4-1.6c1.8-1.5,3.2-3.4,4.2-5.5c0.7-2.4,0.8-4.9,0.5-7.3
	c-0.4-2.5-1.9-4.6-4.1-5.9l-1.8-1h2c-1.2-0.7-2.5-1-3.9-1.1c-1.2,0-2.5,0.2-3.6,0.7l-2.3,1l1.7-1.8c-1.1,0.3-2.1,0.7-3,1.3
	c-3.8,2.5-4.6,6.8-4.8,8.1l-0.1,0.7l-0.7-0.3c-2.4-0.9-5-1.6-7.5-2.1l-0.4-0.1v-1.1L32,17l-0.5-0.8c-0.2-0.6-0.2-1.3,0-1.9
	c-0.4,0.2-0.7,0.6-0.8,1.1l-0.4,1.9l0.3,0.3l-1.4-0.1c-3-0.2-6.1,0-9.1,0.5l-0.7,0.1l0.1-0.7c0.3-2.3-0.2-4.6-1.6-6.4
	c-0.4-0.5-0.8-0.9-1.3-1.2l0,0l0.1,1.6l-1.1-1.1C14.4,8.9,12.8,8.1,11,8H9.9z M29.5,14.2c-0.3,0.2-0.5,0.6-0.5,1
	c0,0.6,0.2,1.1,0.6,1.5l0.6,0.6l-0.5-1.8C29.7,15.4,29.6,14.8,29.5,14.2z"/>
<path class="st19" d="M10.8,38.2"/>
<path class="st19" d="M21.6,27.8"/>
<polygon class="st15" points="29.2,59.4 29.9,50.2 37.7,47.9 36.9,57.9 "/>
<path class="st20" d="M30,50.6c0,0,6.6-1.9,6.8-0.9s0.1,3.3,0.1,3.3l-0.8,4.3c-0.3,0.4-0.7,0.7-1.2,0.9c-1.8,0.4-3.7,0.8-5.6,1v0.3
	l7.6-1.4l0.9-10.4l-2.9,0.8l-5,1.7L30,50.6z"/>
<path class="st19" d="M16.5,27.6"/>
<path class="st19" d="M39.9,31.3"/>
<path class="st19" d="M34.3,29.6"/>
<path class="st21" d="M30.3,41.6c-0.7,0-1.3-0.1-2-0.2c0,0-2.5-0.4-7-1.4c-1.7-0.4-2.9-1.1-3.4-2.2c-0.5-1-0.5-2.2-0.1-3.3l0,0
	c0.5-1.2,2.6-5.5,9-4.8c5,0.7,7.1,3,8,4.7c0.9,1.5,1,3.3,0.4,4.9C34.3,41.2,32,41.6,30.3,41.6z M19,35.1c-0.2,0.7-0.2,1.4,0.1,2
	c0.6,0.8,1.5,1.4,2.5,1.5c4.5,1,7,1.4,7,1.4c1.2,0.2,4.6,0.4,5.4-1.3c0.4-1.2,0.3-2.5-0.4-3.6c-0.8-1.5-2.6-3.3-7-4
	C20.4,30.4,19,35,19,35.1z"/>
<path class="st22" d="M19.4,30.7c-0.5,0-1-0.1-1.5-0.2c-0.8-0.2-1.5-0.7-1.8-1.4c-0.2-1.1,0-2.2,0.5-3.1c0.6-1.2,1.8-1.9,3.1-1.8
	c1.2,0.2,2.1,1.9,2.1,1.9c0.4,1,1,3.2-1.1,4.3C20.3,30.6,19.9,30.7,19.4,30.7z M20.6,30c2.2-1.7,0.3-4.6-0.8-4.9
	c-1-0.2-1.9,0.2-2.5,1c-0.7,0.7-1,1.8-0.7,2.8c0.3,0.7,0.8,1,1.8,1.2C19.1,30.2,19.9,30.2,20.6,30z"/>
<path class="st18" d="M37.6,33c-1.3,0-3.3-0.2-3.9-2c-0.3-0.9,0.5-2.9,1.3-3.7c0.9-0.8,2.1-1.2,3.3-0.9c0.9,0.3,1.7,1,2,1.9
	c0,0.1,1,2.9-0.8,4.3C38.9,32.9,38.3,33,37.6,33z M39.3,32.2c1.1-0.8,1.3-4.4-1.4-4.9c-1-0.3-2.1,0.1-2.7,0.9
	c-0.7,0.8-1.1,1.8-1,2.9c0.1,0.6,0.6,1.1,1.2,1.2C36.8,32.8,38,33.1,39.3,32.2z"/>
<path class="st20" d="M21,48.2c0,0,6.1,2,6.6,3.2s0.3-1.1,0.2-1.2S21,47.7,21,47.7V48.2z"/>
<path class="st19" d="M1.3,32.5"/>
<path class="st22" d="M17.2,24.4c-0.3-0.5-0.1-1.2,0.4-1.5c0,0,0,0,0.1,0c1.2-0.3,1.5,0.5,1.4,0.5c-0.3-0.2-0.8-0.2-1.1,0
	C17.6,23.6,17.3,23.9,17.2,24.4z"/>
<path class="st2" d="M38.4,25.4"/>
<path class="st1" d="M38.7,25.7c-0.1-0.1,0.7-0.9,1.5-0.4c0.9,0.8,0.3,1.5,0.3,1.5c-0.1-0.3-0.2-0.7-0.5-0.9
	C39.6,25.6,39.2,25.6,38.7,25.7z"/>
<path class="st2" d="M41.1,25.7c-0.3-1.1-1.3-1.7-2.4-1.5c-0.1,0-0.2,0.1-0.3,0.1"/>
<path class="st18" d="M28.5,43.8c-0.9,0-1.8-0.3-2.5-0.9c-0.1-0.1-0.1-0.3,0-0.4c0.1-0.1,0.3-0.1,0.4,0c0.7,0.6,1.6,0.8,2.5,0.7
	c1-0.2,2-0.6,2.8-1.2c-0.6,0.9-1.6,1.6-2.7,1.8L28.5,43.8z"/>
<path class="st23" d="M19.8,37.1c0,0-1.1-5.5,4.1-5.2C20.1,32.6,19.8,37.1,19.8,37.1z"/>
<path class="st22" d="M22,17.3l0.4-3L12.6,9l21.5-5.5l19,10.3l-11.1,3l-0.3,3.3c0,0-2-1.9-9.5-2.8C25.3,16.6,22,17.3,22,17.3z"/>
<path class="st1" d="M41.6,20.6c-0.2,0-0.3-0.1-0.4-0.2c0,0-2-1.8-9.2-2.6c-3.3-0.5-6.6-0.5-9.9-0.1c-0.2,0-0.3,0-0.5-0.1
	c-0.1-0.1-0.2-0.3-0.2-0.5l0.3-2.6l-9.5-5.1c-0.2-0.1-0.3-0.3-0.3-0.5c0-0.2,0.2-0.4,0.4-0.5l21.5-5.5h0.4l19,10.3
	c0.2,0.1,0.3,0.3,0.3,0.5c0,0.2-0.2,0.4-0.4,0.5l-10.7,2.9l-0.3,3c0,0.2-0.1,0.3-0.3,0.4C41.7,20.6,41.7,20.6,41.6,20.6z M26.1,16.4
	c2,0,4.1,0.1,6.1,0.4c5.2,0.6,7.8,1.7,9,2.3l0.2-2.4c0-0.2,0.2-0.4,0.4-0.5l9.8-2.7L34,4L14,9.1l8.6,4.7c0.2,0.1,0.3,0.3,0.3,0.5
	l-0.3,2.3C23.8,16.4,24.9,16.4,26.1,16.4z"/>
<path class="st24" d="M41.6,20.1c0,0,0.6-5.1,0.6-5.5c-6-3.2-13-4.1-19.6-2.4L22,17.1c3.5-0.5,7-0.5,10.5,0.1
	C35.7,17.6,38.8,18.6,41.6,20.1z"/>
<path class="st1" d="M42.1,20.9l-0.7-0.3c-2.8-1.4-5.8-2.3-8.9-2.8c-3.4-0.6-6.9-0.6-10.3-0.1l-0.8,0.1l0.8-6l0.3-0.1
	c6.7-1.7,13.9-0.8,20,2.5l0.3,0.1v0.4c0,0.4-0.6,5.5-0.6,5.5L42.1,20.9z M26.9,16.2c1.9,0,3.9,0.2,5.8,0.5c3,0.5,5.8,1.4,8.6,2.6
	c0.1-1.2,0.4-3.5,0.5-4.4c-5.7-2.9-12.3-3.7-18.5-2.3l-0.5,3.9C24.2,16.3,25.5,16.2,26.9,16.2z"/>
<path class="st2" d="M20.1,54.9c-1.7-0.2-3.2-1.4-3.7-3.1c-0.7-3.1,1.4-5.8,6.2-6.2c0.1,1,0,1.9-0.1,2.8c-0.1,0.4-1.7-0.8-1.8-0.3
	c-0.6,0.3,0.3,2.5,0,3.1c-0.6,1-0.8,2.2-0.6,3.3c0.1,0,0.2,0.1,0.2,0.2S20.2,54.9,20.1,54.9z"/>
<path class="st6" d="M21.3,47.6l5.2,1.9l2.6,0.6l8.7-2.4c0,0-3-1.2-3.1-1.2s-6,3-6,3l-2.8-1.6l-4.3-1.1L21.3,47.6z"/>
<path class="st3" d="M21.4,45.7c0.1,0.1,0.2,0.3,0.3,0.5c0.1,0.2,0.1,0.5,0,0.7c0.1,0,0.6,0.3,0.7,0c0.1-0.5,0.1-0.9,0.1-1.4
	L21.4,45.7c0.2,0,0.3,0,0.5-0.1"/>
<path class="st1" d="M29.2,59.7h-1.1c-2.9-0.1-5.7-0.7-8.3-1.8c-0.2-0.1-0.4-0.3-0.3-0.5l0.7-10c0-0.2,0.1-0.3,0.3-0.4
	c0.2-0.1,0.3-0.1,0.5,0c0.1,0,5.2,2.3,7,2.6c0.6,0.1,1.1,0.1,1.7,0c2.7-0.6,5.3-1.4,7.8-2.4c0.1-0.1,0.3-0.2,0.5-0.1
	c0.2,0.1,0.4,0.3,0.4,0.6l-0.3,10.2C35.3,59,32.3,59.6,29.2,59.7z M20.6,57c2.4,0.9,5,1.5,7.6,1.6c2.8,0.1,5.6-0.2,8.2-1.1l0.8-9.1
	c-0.8,0.3-1.6,0.6-2.5,0.8c-1.6,0.5-3.2,1-4.8,1.3c-0.7,0.1-1.4,0.1-2.1,0c-2.3-0.6-4.5-1.4-6.6-2.4L20.6,57z"/>
<path class="st1" d="M28.7,49.9l-0.3-0.3c-1.5-1.1-3.3-1.8-5.1-2.1c-0.7-0.2-1.5-0.1-2.2,0.3L20.4,47c0.9-0.6,2-0.8,3.1-0.5
	c1.9,0.4,3.7,1.1,5.3,2.1c1.3-0.8,5.2-2.9,6.7-2.4c0.8,0.3,1.7,0.6,2.5,0.9l-0.4,1c0,0-2-0.7-2.4-0.8c-0.9-0.3-4.1,1.3-6.2,2.5
	L28.7,49.9z"/>
<path class="st15" d="M27.2,59.1l2,0.1l0.5-8.9c0,0-1.9-0.2-1.9,0L27.2,59.1"/>
<path class="st1" d="M29.2,59.7L29.2,59.7l-2-0.1c-0.2,0-0.3-0.1-0.4-0.2c-0.1-0.1-0.1-0.3-0.1-0.4l0.6-8.9c0-0.2,0.1-0.3,0.2-0.4
	c0.2-0.1,0.3-0.3,2.3-0.1c0.3,0,0.5,0.3,0.5,0.6l-0.5,9C29.7,59.4,29.5,59.7,29.2,59.7z M27.8,58.6h0.9l0.4-7.9h-0.8L27.8,58.6z"/>
<path class="st25" d="M0.1,56.4"/>
<ellipse class="st26" cx="16.8" cy="50.2" rx="0.7" ry="1.5"/>
<path class="st6" d="M2.1,51.8"/>
<path class="st27" d="M19.7,17.5"/>
<path class="st27" d="M12.8,28.8"/>
<path class="st2" d="M19.5,56c0.9,0.5,3.1,0.7,2.7-0.7c-0.1-0.7-1.8-0.8-2.5-0.7C19.4,54.7,18.6,55.5,19.5,56z"/>
<path class="st2" d="M20.6,53.8c0.5-0.1,1.1-0.1,1.6,0c0,0.1,0.3,1.1,0.2,1.1s-0.6,0.7-0.9,0.6c-0.7-0.2-1.3-0.3-2-0.4
	c-0.1-0.1-0.7-0.4-0.7-0.6s0.1-1,0.2-1s0.5-0.1,0.5,0C19.9,53.6,20.2,53.7,20.6,53.8z"/>
<path class="st2" d="M20.6,52.3c0.1-0.5,1.6,0.3,1.6,0.4s0.3,1.1,0.2,1.1s-0.6,0.7-0.9,0.6s-1.8-0.4-2-0.4s-0.7-0.4-0.7-0.6
	s0.1-1,0.2-1s0.3-0.8,0.3-0.7L20.6,52.3z"/>
<path class="st2" d="M19.8,56.2c0,0-0.1-0.1-0.1-0.7s-0.6-0.3-0.7-0.3c0,0.3,0.1,0.6,0.2,0.9C19.3,56.2,19.8,56.2,19.8,56.2z"/>
<path class="st17" d="M19.8,53.4c0-0.2,0-0.4,0.1-0.6c0.2-0.2,0.5-0.4,0.8-0.4l0,0c0,0-0.2-0.1-0.2,0s-1,0.1-1,0.1l-0.2,0.8
	L19.8,53.4z"/>
<path class="st17" d="M19.8,56.2c-0.1-0.2-0.2-0.5-0.2-0.7c0.1-0.3-0.6-0.1-0.6-0.1s-0.4,1-0.3,1S19.8,56.2,19.8,56.2z"/>
<path class="st17" d="M19.6,54.8c-0.1-0.3-0.1-0.6,0-0.9c0.2-0.5-0.6-0.2-0.6-0.2l0.3,1.3L19.6,54.8z"/>
<path class="st10" d="M21.4,52.6c0.3,0.2,0.4,0.6,0.2,0.9c0,0.1-0.1,0.1-0.1,0.2c0.6,0.6,0.8-0.8,0.8-0.8S22.3,52.5,21.4,52.6z"/>
<path class="st10" d="M21.4,54.1c0.3,0.2,0.4,0.6,0.2,0.9c0,0.1-0.1,0.1-0.1,0.2c0.6,0.6,0.8-0.8,0.8-0.8S22.3,53.9,21.4,54.1z"/>
<path class="st10" d="M21.3,55.5c0,0,0.1,0.4-0.5,0.9c0.6,0.5,1.4-0.7,1.4-0.7S22.1,55.4,21.3,55.5z"/>
<path class="st1" d="M22.7,46.9l-0.9-0.1c0.1-0.8,0.4-1.6,0.9-2.2l0.8,0.2C23.1,45.4,22.9,46.1,22.7,46.9z"/>
<path class="st1" d="M35.7,47.1c-0.1-0.5-0.3-0.9-0.5-1.4l1-0.4c0,0.1,0.5,1.5,0.5,1.5L35.7,47.1z"/>
<path class="st1" d="M18.7,55c-0.1-0.1-3.3-2.9-3.2-5.3l0,0c0.7-4.3,6.6-5.2,6.9-5.2l0.3,1c-0.1,0-5.9,0.7-6.5,4.2
	c-0.1,1.5,2.1,4,2.8,4.5L18.7,55z"/>
<path class="st1" d="M21.2,54.6c-0.6,0-1.2-0.1-1.8-0.4c-0.5-0.3-0.7-0.8-0.7-1.3c0.1-0.6,0.5-1,1.1-1.1c0.9-0.2,1.8-0.1,2.6,0.4
	c0.2,0.2,0.4,0.4,0.4,0.7c0.2,0.5,0,1.1-0.4,1.4C22.1,54.5,21.6,54.6,21.2,54.6z M20.6,52.7H20c0,0-0.2,0.2-0.2,0.3l0.2,0.2
	c0.6,0.3,1.3,0.4,1.9,0.2c0,0,0.1-0.1,0-0.3V53C21.8,52.8,21.2,52.7,20.6,52.7z"/>
<path class="st1" d="M21.2,56c-0.7,0-1.4-0.2-2-0.5c-0.5-0.3-0.8-0.8-0.8-1.3c0-0.5,0.2-1,0.7-1.3l0.5,0.9l0,0
	c-0.1,0-0.2,0.3-0.1,0.5s0.1,0.2,0.2,0.3c0.6,0.4,1.4,0.5,2.1,0.2c0.2-0.3,0.2-0.7,0-1l1-0.4c0.2,0.6,0.2,1.3-0.1,1.9
	c-0.2,0.3-0.5,0.5-0.9,0.6C21.6,55.9,21.4,56,21.2,56z"/>
<path class="st1" d="M20.4,57.1c-0.7,0-1.9-0.7-2-1.2c-0.1-0.5,0.2-1,0.6-1.3l0.5,0.5L19.4,55l0.1,0.1c-0.2,0.1-0.1,0.6-0.2,0.7
	c0.7,0.5,1.7,0.5,2.3-0.1c0.1-0.1,0.1-0.3,0.1-0.4l1-0.2c0.2,0.5,0,1.1-0.4,1.4C21.8,56.9,21.1,57.1,20.4,57.1z"/>
<ellipse class="st26" cx="42" cy="51" rx="0.7" ry="1.5"/>
<path class="st2" d="M38.2,53.1c-0.1-0.5-1.6,0.3-1.6,0.4s-0.3,1.1-0.2,1.1s-0.1,2.6,0.2,2.5s4.1,1,2.7-2.3
	c-0.1-0.1,0.7-0.4,0.7-0.6s-0.1-1-0.2-1s-0.3-0.8-0.3-0.7L38.2,53.1z"/>
<path class="st28" d="M38.9,54.2c0-0.2,0-0.4-0.1-0.6c-0.2-0.2-0.4-0.3-0.7-0.3l0,0c0,0,0.2-0.1,0.2,0s1,0.1,1,0.1l0.2,0.8H38.9z"/>
<path class="st28" d="M38.3,57c0.1-0.2,0.2-0.5,0.2-0.7c-0.1-0.3,1.2-0.1,1.2-0.1c-0.3,0.4-0.6,0.7-0.9,1C38.7,57.3,38.3,57,38.3,57
	z"/>
<path class="st28" d="M39.1,55.6c0.1-0.3,0.1-0.6,0-0.9c-0.1-0.4,0.7-0.2,0.7-0.2l-0.3,1.3L39.1,55.6z"/>
<path class="st1" d="M40,55.6L39.6,55c0.7-0.5,3.1-2.7,3.1-4.2c-0.6-3.4-6.9-4.6-6.9-4.6l0.1-0.8c0.3,0,6.7,0.8,7.4,5.3v0.1
	C43.4,53.3,40.4,55.4,40,55.6z"/>
<path class="st1" d="M37.6,55.5c-0.5,0-0.9-0.1-1.3-0.4c-0.4-0.4-0.6-1-0.4-1.5c0-0.3,0.2-0.5,0.4-0.7c0.8-0.4,1.7-0.5,2.6-0.4
	c0.5,0.1,0.9,0.6,1,1.1c0.1,0.6-0.2,1.2-0.7,1.5l0,0C38.7,55.3,38.2,55.5,37.6,55.5z M38.2,53.5c-0.6,0-1.2,0.1-1.3,0.3
	c-0.1,0.1-0.1,0.2-0.1,0.3c0,0.1,0.1,0.2,0.2,0.2c0.6,0.2,1.2,0.2,1.7-0.1c0.2-0.1,0.2-0.2,0.2-0.3S38.9,53.5,38.2,53.5z"/>
<path class="st1" d="M37.6,56.8c-0.2,0-0.5,0-0.7-0.1c-0.3-0.1-0.6-0.3-0.8-0.6c-0.3-0.6-0.3-1.3-0.1-1.9l1,0.4
	c-0.2,0.3-0.2,0.7,0,1c0.1,0.2,1.3,0.2,2.1-0.2c0.1-0.1,0.2-0.2,0.2-0.3c0-0.2,0-0.3-0.1-0.5l0,0l0.5-0.9c0.4,0.3,0.7,0.8,0.7,1.3
	c0,0.6-0.3,1.1-0.8,1.3C39,56.6,38.3,56.8,37.6,56.8z"/>
<path class="st1" d="M13.3,29l-1-0.3c0.1-0.4,3.7-11,8.2-11.7l0.7,0.8C18,18.2,14.3,26.1,13.3,29z"/>
<path class="st26" d="M23.3,12.6l-0.5,3.9l0.8-0.1c0.1-1.3,0.2-2.7,0.5-4C23.8,12.4,23.6,12.4,23.3,12.6"/>
<path class="st29" d="M29.7,14.3"/>
<path class="st1" d="M28.9,59.7c-12.4,0.2-22.6-9.6-22.8-22c0-0.1,0-0.3,0-0.4h1.1c0,12,9.6,21.3,21.8,21.3
	c12.5,0,22.9-10.6,22.9-22.1l1-0.4c0,6-2.4,12.8-7,17.1C41.2,57.3,35.2,59.6,28.9,59.7z"/>
<path class="st30" d="M41.9,20.1"/>
<path class="st18" d="M46.4,33.7L46.4,33.7c-0.3,0-0.5-0.1-0.5-0.4c0-0.1,0-0.1,0-0.2c1.2-8.9-4.3-12.4-4.5-12.5
	c-0.2-0.1-0.3-0.5-0.2-0.7c0.1-0.2,0.5-0.3,0.7-0.2c0.3,0.2,6.3,4,5,13.6C46.9,33.5,46.6,33.7,46.4,33.7z"/>
<path class="st1" d="M37.9,55.8L37.9,55.8L37.9,55.8z"/>
<path class="st1" d="M36.5,58.3c-0.5-0.1-0.3-0.2-0.4-0.4c-0.3-0.6-0.3-1.3-0.1-1.9l1,0.4c-0.2,0.3-0.2,0.7,0,1c0.1,0.2,2.2-1,2.2-1
	l0,0C38.3,57.1,37.4,57.7,36.5,58.3z"/>
<path class="st1" d="M28.9,62"/>
<g>
	<path class="st31" d="M68.7,49.3v-5.1c0-0.1,0.1-0.1,0.1-0.1h0.9c0.1,0,0.1,0.1,0.1,0.1v4.2h2.2v-4.2c0-0.1,0.1-0.1,0.1-0.1H73
		c0.1,0,0.1,0.1,0.1,0.1v4.2h1c0.1,0,0.1,0.1,0.1,0.1v2.5c0,0.1-0.1,0.1-0.1,0.1h-0.9c-0.1,0-0.1-0.1-0.1-0.1v-1.7h-4.4
		C68.8,49.4,68.7,49.3,68.7,49.3z"/>
	<path class="st31" d="M82.2,44.1c0.1,0,0.1,0.1,0.1,0.1V45c0,0.1-0.1,0.1-0.1,0.1h-2.7v1.1h2.3c0.1,0,0.1,0.1,0.1,0.1v0.8
		c0,0.1-0.1,0.1-0.1,0.1h-2.3v1.2h2.7c0.1,0,0.1,0,0.1,0.1v0.8c0,0.1-0.1,0.1-0.1,0.1h-3.7c-0.1,0-0.1-0.1-0.1-0.1v-5.1
		c0-0.1,0.1-0.1,0.1-0.1H82.2z"/>
	<path class="st31" d="M91,44.1c0.1,0,0.1,0.1,0.1,0.1v5.1c0,0.1-0.1,0.1-0.1,0.1h-0.9c-0.1,0-0.1-0.1-0.1-0.1v-2.1h-2.4v2.1
		c0,0.1,0,0.1-0.1,0.1h-0.9c-0.1,0-0.1-0.1-0.1-0.1v-5.1c0-0.1,0.1-0.1,0.1-0.1h0.9c0.1,0,0.1,0.1,0.1,0.1v2H90v-2
		c0-0.1,0.1-0.1,0.1-0.1H91z"/>
	<path class="st31" d="M99.5,44.1c0.1,0,0.1,0.1,0.1,0.1V45c0,0.1-0.1,0.1-0.1,0.1H98v4.2c0,0.1-0.1,0.1-0.1,0.1H97
		c-0.1,0-0.1-0.1-0.1-0.1v-4.2h-1.6c-0.1,0-0.1-0.1-0.1-0.1v-0.8c0-0.1,0.1-0.1,0.1-0.1H99.5z"/>
	<path class="st31" d="M106,44.1c0.4,0,0.9,0.1,1.2,0.4c0.4,0.3,0.6,0.8,0.6,1.5c0,0.6-0.3,1.2-0.7,1.5c-0.4,0.3-0.8,0.4-1.2,0.4
		h-1.2v1.5c0,0.1,0,0.1-0.1,0.1h-0.9c-0.1,0-0.1-0.1-0.1-0.1v-5.1c0-0.1,0.1-0.1,0.1-0.1H106z M106.4,45.2c-0.2-0.1-0.4-0.2-0.6-0.2
		h-1v1.7h1c0.2,0,0.4,0,0.6-0.1c0.2-0.1,0.3-0.4,0.3-0.7C106.7,45.6,106.6,45.4,106.4,45.2z"/>
	<path class="st31" d="M120.1,49.5c-1.6,0-2.8-1.1-2.8-2.7s1.2-2.7,2.8-2.7c1.6,0,2.8,1.1,2.8,2.7S121.6,49.5,120.1,49.5z
		 M120.1,45.1c-0.9,0-1.6,0.7-1.6,1.7c0,1,0.7,1.7,1.6,1.7c0.9,0,1.6-0.7,1.6-1.7S121,45.1,120.1,45.1z"/>
	<path class="st31" d="M130.6,44.1c0.1,0,0.1,0.1,0.1,0.1V45c0,0.1-0.1,0.1-0.1,0.1h-2.3v1.2h0.8c0.4,0,0.8,0,1.2,0.2
		c0.4,0.2,0.8,0.6,0.8,1.3c0,0.7-0.3,1.1-0.7,1.3c-0.3,0.2-0.7,0.2-1.1,0.2h-1.9c-0.1,0-0.1-0.1-0.1-0.1v-5.1c0-0.1,0.1-0.1,0.1-0.1
		H130.6z M129.6,47.2c-0.2-0.1-0.4-0.1-0.6-0.1h-0.7v1.3h0.8c0.2,0,0.4,0,0.6-0.1c0.2-0.1,0.3-0.3,0.3-0.6
		C129.9,47.5,129.8,47.4,129.6,47.2z"/>
	<path class="st31" d="M137.6,44.1c0.4,0,0.9,0.1,1.2,0.4c0.4,0.3,0.6,0.8,0.6,1.5c0,0.6-0.3,1.2-0.7,1.5c-0.4,0.3-0.8,0.4-1.2,0.4
		h-1.2v1.5c0,0.1,0,0.1-0.1,0.1h-0.9c-0.1,0-0.1-0.1-0.1-0.1v-5.1c0-0.1,0.1-0.1,0.1-0.1H137.6z M138.1,45.2
		c-0.2-0.1-0.4-0.2-0.6-0.2h-1v1.7h1c0.2,0,0.4,0,0.6-0.1c0.2-0.1,0.3-0.4,0.3-0.7C138.4,45.6,138.3,45.4,138.1,45.2z"/>
	<path class="st31" d="M144.4,49.3c0,0.1-0.1,0.1-0.2,0.1h-0.9c-0.1,0-0.1,0-0.1-0.1c0,0,0,0,0-0.1l1.8-5c0-0.1,0.1-0.1,0.2-0.1h0.9
		c0.1,0,0.2,0,0.2,0.1l1.8,5c0,0,0,0.1,0,0.1c0,0.1,0,0.1-0.1,0.1h-0.9c-0.1,0-0.2,0-0.2-0.1l-0.3-0.9h-1.9L144.4,49.3z M145.7,45.4
		l-0.7,2h1.3L145.7,45.4z"/>
	<path class="st31" d="M152.6,47.1c-0.1,0-0.1,0-0.1-0.1v-0.6c0-0.1,0.1-0.1,0.1-0.1h0.5c0.3,0,0.5,0,0.7-0.1
		c0.2-0.1,0.3-0.3,0.3-0.6c0-0.2-0.1-0.3-0.2-0.4c-0.1-0.1-0.3-0.2-0.5-0.2c-0.4,0-0.7,0.1-1,0.3c-0.1,0.1-0.1,0-0.2,0l-0.3-0.6
		c0-0.1,0-0.1,0-0.2c0.4-0.2,0.8-0.5,1.5-0.5c0.5,0,0.9,0.2,1.1,0.4c0.3,0.3,0.4,0.6,0.4,1c0,0.5-0.2,1-0.8,1.2c0.6,0.2,1,0.7,1,1.4
		c0,0.5-0.2,0.9-0.5,1.1c-0.3,0.2-0.7,0.4-1.2,0.4c-0.7,0-1.1-0.2-1.5-0.4c-0.1,0-0.1-0.1,0-0.2l0.3-0.6c0-0.1,0.1-0.1,0.2,0
		c0.4,0.3,0.7,0.3,1,0.3c0.3,0,0.5-0.1,0.6-0.2c0.2-0.1,0.2-0.3,0.2-0.5c0-0.3-0.1-0.5-0.4-0.6c-0.2-0.1-0.4-0.1-0.7-0.1H152.6z"/>
	<path class="st31" d="M162.1,49.5c-1.6,0-2.8-1.1-2.8-2.7s1.2-2.7,2.8-2.7c1.6,0,2.8,1.1,2.8,2.7S163.7,49.5,162.1,49.5z
		 M162.1,45.1c-0.9,0-1.6,0.7-1.6,1.7c0,1,0.7,1.7,1.6,1.7c0.9,0,1.6-0.7,1.6-1.7S163,45.1,162.1,45.1z"/>
	<path class="st31" d="M171.3,49.4h-2c-0.1,0-0.1-0.1-0.1-0.1v-5.1c0-0.1,0.1-0.1,0.1-0.1h1.6c0.4,0,0.9,0.1,1.3,0.3
		c0.3,0.2,0.5,0.6,0.5,1c0,0.5-0.2,0.9-0.6,1.1v0c0.7,0.2,1.1,0.7,1.1,1.4C173.1,48.9,172.2,49.4,171.3,49.4z M171.3,45.1
		c-0.1-0.1-0.3-0.1-0.4-0.1h-0.6v1.2h0.5c0.1,0,0.3,0,0.4-0.1c0.2-0.1,0.3-0.3,0.3-0.5C171.5,45.4,171.4,45.2,171.3,45.1z
		 M171.6,47.2c-0.2-0.1-0.4-0.1-0.6-0.1h-0.7v1.3h0.8c0.2,0,0.4,0,0.5-0.1c0.2-0.1,0.4-0.3,0.4-0.6
		C171.9,47.6,171.8,47.4,171.6,47.2z"/>
	<path class="st31" d="M178,49.3c0,0.1-0.1,0.1-0.2,0.1H177c-0.1,0-0.1,0-0.1-0.1c0,0,0,0,0-0.1l1.8-5c0-0.1,0.1-0.1,0.2-0.1h0.9
		c0.1,0,0.2,0,0.2,0.1l1.7,5c0,0,0,0.1,0,0.1c0,0.1,0,0.1-0.1,0.1h-0.9c-0.1,0-0.2,0-0.2-0.1l-0.3-0.9h-1.9L178,49.3z M179.3,45.4
		l-0.7,2h1.3L179.3,45.4z"/>
	<path class="st31" d="M190.1,44.1c0.1,0,0.1,0.1,0.1,0.1v5.1c0,0.1-0.1,0.1-0.1,0.1h-0.9c-0.1,0-0.1-0.1-0.1-0.1v-2.1h-2.4v2.1
		c0,0.1,0,0.1-0.1,0.1h-0.9c-0.1,0-0.1-0.1-0.1-0.1v-5.1c0-0.1,0.1-0.1,0.1-0.1h0.9c0.1,0,0.1,0.1,0.1,0.1v2h2.4v-2
		c0-0.1,0.1-0.1,0.1-0.1H190.1z"/>
	<path class="st31" d="M198.3,46.2l-2.4,2.5v0.6c0,0.1,0,0.1-0.1,0.1h-0.9c-0.1,0-0.1-0.1-0.1-0.1v-5.1c0-0.1,0.1-0.1,0.1-0.1h0.9
		c0.1,0,0.1,0.1,0.1,0.1v3.1l2.4-2.5v-0.6c0-0.1,0.1-0.1,0.1-0.1h0.9c0.1,0,0.1,0.1,0.1,0.1v5.1c0,0.1-0.1,0.1-0.1,0.1h-0.9
		c-0.1,0-0.1,0-0.1-0.1V46.2z"/>
	<path class="st31" d="M203.6,45.8c0-0.6,0.2-1.1,0.6-1.4c0.3-0.3,0.8-0.4,1.3-0.4h2.2c0.1,0,0.1,0.1,0.1,0.1v5.1
		c0,0.1-0.1,0.1-0.1,0.1h-0.9c-0.1,0-0.1-0.1-0.1-0.1v-1.7h-1l-1,1.7c-0.1,0.1-0.1,0.1-0.2,0.1h-1c-0.1,0-0.1,0-0.1-0.1
		c0,0,0-0.1,0-0.1l1.1-1.8c-0.2,0-0.3-0.1-0.5-0.2C203.8,46.8,203.6,46.3,203.6,45.8z M205.6,45c-0.2,0-0.4,0-0.6,0.1
		c-0.2,0.1-0.3,0.3-0.3,0.6c0,0.3,0.1,0.5,0.3,0.6c0.2,0.1,0.4,0.1,0.6,0.1h1.1V45H205.6z"/>
</g>
<g>
	<path class="st31" d="M81.7,20.8c0.4,0,0.5,0.3,0.3,0.7l-5.3,7.4l5.5,7.9c0.3,0.4,0.2,0.8-0.2,0.8h-3.7c-0.4,0-0.6-0.1-0.8-0.4
		l-4-6.1h-0.8v6.1c0,0.2-0.2,0.4-0.4,0.4h-3.1c-0.2,0-0.4-0.2-0.4-0.4V21.3c0-0.2,0.2-0.4,0.4-0.4h3.1c0.2,0,0.4,0.2,0.4,0.4v5.9
		h0.8l4-5.9c0.2-0.3,0.4-0.4,0.8-0.4H81.7z"/>
	<path class="st31" d="M92.9,37.8c-4.4,0-8.3-3.4-8.3-8.6c0-5.2,3.8-8.6,8.3-8.6c4.4,0,8.3,3.4,8.3,8.6
		C101.2,34.5,97.3,37.8,92.9,37.8z M92.9,24.7c-2.4,0-4.1,1.9-4.1,4.6c0,2.7,1.7,4.5,4.1,4.5c2.4,0,4.1-1.9,4.1-4.5
		C97,26.6,95.3,24.7,92.9,24.7z"/>
	<path class="st31" d="M117.5,37.1c0,0.2-0.2,0.4-0.4,0.4H114c-0.2,0-0.4-0.2-0.4-0.4v-4.3h-4.9v4.3c0,0.2-0.2,0.4-0.4,0.4h-3.1
		c-0.2,0-0.4-0.2-0.4-0.4v-9.7c0-2,0.8-4.2,2.4-5.5c1-0.8,2.3-1.3,4-1.3c1.7,0,3,0.5,4,1.3c1.7,1.4,2.4,3.5,2.4,5.5V37.1z
		 M109.5,25.3c-0.4,0.5-0.8,1.2-0.8,2.4V29h4.9v-1.3c0-1.2-0.3-1.9-0.8-2.4c-0.5-0.5-1.1-0.6-1.7-0.6
		C110.6,24.7,110,24.8,109.5,25.3z"/>
	<path class="st31" d="M123.6,37.6h-2.4c-0.4,0-0.7-0.3-0.3-0.9c0.8-1.4,1.3-2.8,1.6-4.4c0.3-1.7,0.4-3.6,0.4-5.9v-5
		c0-0.2,0.2-0.4,0.4-0.4h11.3c0.2,0,0.4,0.2,0.4,0.4v15.8c0,0.2-0.2,0.4-0.4,0.4h-3.1c-0.2,0-0.4-0.2-0.4-0.4V24.7h-4.2v1.6
		c0,1.9-0.2,4.3-0.6,6.3c-0.3,1.5-1.1,3.5-1.7,4.4C124.3,37.5,124.1,37.6,123.6,37.6z"/>
	<path class="st31" d="M149.1,28.6l-5.9,6.6v1.9c0,0.2-0.2,0.4-0.4,0.4h-3.1c-0.2,0-0.4-0.2-0.4-0.4V21.3c0-0.2,0.2-0.4,0.4-0.4h3.1
		c0.2,0,0.4,0.2,0.4,0.4v8.6l5.9-6.5v-2.1c0-0.2,0.2-0.4,0.4-0.4h3.1c0.2,0,0.4,0.2,0.4,0.4v15.8c0,0.2-0.2,0.4-0.4,0.4h-3.1
		c-0.2,0-0.4-0.2-0.4-0.4V28.6z"/>
	<path class="st31" d="M157.3,37.1V21.3c0-0.2,0.2-0.4,0.4-0.4h3.1c0.2,0,0.4,0.2,0.4,0.4v12.5h5.5V21.3c0-0.2,0.2-0.4,0.4-0.4h3.1
		c0.2,0,0.4,0.2,0.4,0.4v12.5h3.5c0.2,0,0.4,0.2,0.4,0.4v2.9c0,0.3-0.2,0.5-0.5,0.5l-3.5,0h-12.9C157.4,37.6,157.3,37.4,157.3,37.1z
		"/>
	<path class="st31" d="M187.5,28.6l-5.9,6.6v1.9c0,0.2-0.2,0.4-0.4,0.4h-3.1c-0.2,0-0.4-0.2-0.4-0.4V21.3c0-0.2,0.2-0.4,0.4-0.4h3.1
		c0.2,0,0.4,0.2,0.4,0.4v8.6l5.9-6.5v-2.1c0-0.2,0.2-0.4,0.4-0.4h3.1c0.2,0,0.4,0.2,0.4,0.4v15.8c0,0.2-0.2,0.4-0.4,0.4h-3.1
		c-0.2,0-0.4-0.2-0.4-0.4V28.6z"/>
	<path class="st31" d="M195.1,26.4c0-1.8,0.6-3.4,1.8-4.4c1-0.9,2.4-1.2,3.9-1.2h6.8c0.2,0,0.4,0.2,0.4,0.4v15.8
		c0,0.2-0.2,0.4-0.4,0.4h-3.1c-0.2,0-0.4-0.2-0.4-0.4v-5h-2.4l-2.4,5c-0.2,0.4-0.4,0.4-0.8,0.4H195c-0.2,0-0.4-0.1-0.4-0.3
		c0-0.1,0-0.3,0.1-0.4l2.9-5.5c-0.3-0.2-0.6-0.4-0.9-0.7C195.6,29.4,195.1,27.9,195.1,26.4z M201.1,24.5c-0.5,0-1,0.1-1.3,0.4
		c-0.4,0.3-0.6,0.8-0.6,1.6c0,0.8,0.3,1.3,0.7,1.6c0.4,0.2,0.8,0.4,1.3,0.4h2.9v-4H201.1z"/>
</g>
</svg>
