<?xml version="1.0" encoding="UTF-8"?>
<svg width="15px" height="15px" viewBox="0 0 15 15" version="1.1" xmlns="http://www.w3.org/2000/svg" xmlns:xlink="http://www.w3.org/1999/xlink">
    <!-- Generator: Sketch 52.2 (67145) - http://www.bohemiancoding.com/sketch -->
    <title>reload (1)</title>
    <desc>Created with Sketch.</desc>
    <g id="Page-1" stroke="none" stroke-width="1" fill="none" fill-rule="evenodd">
        <g id="ГЛАВНАЯ" transform="translate(-1008.000000, -3294.000000)" fill="#A2BE33" fill-rule="nonzero">
            <g id="Group-22" transform="translate(683.000000, 3276.000000)">
                <g id="reload-(1)" transform="translate(325.000000, 18.000000)">
                    <path d="M4.07935772,2.38235221 C6.15478294,0.992556905 8.80452056,1.05284483 10.8009398,2.41725575 L10.1840858,2.49658196 C9.84375252,2.54100464 9.60369601,2.8646556 9.64319898,3.22003705 C9.68270195,3.54686106 9.95010666,3.78801276 10.2570143,3.78801276 C10.2813239,3.78801276 12.4570259,3.50878448 12.4570259,3.50878448 C12.6211151,3.48657314 12.7700109,3.40090082 12.8702877,3.26445973 C12.9705645,3.12801864 13.0161448,2.95667401 12.994874,2.78532939 L12.7305079,0.567368387 C12.6879663,0.211986939 12.3749812,-0.0418569528 12.0376866,0.00573877682 C11.6973534,0.0501614578 11.4572969,0.373812419 11.4998385,0.729193867 L11.5818832,1.40505323 C9.17220204,-0.30521999 5.93599727,-0.403584498 3.41084594,1.29082348 C0.46027802,3.26763278 -0.767352711,7.17682871 0.490664919,10.587856 C0.584864307,10.8448729 0.89177199,11.1018899 1.29287906,10.9591027 C1.61801888,10.8416999 1.77299207,10.454588 1.64840578,10.1214178 C0.603096447,7.28153931 1.62409626,4.02916446 4.07935772,2.38235221 Z" id="Shape"></path>
                    <path d="M14.5092278,4.412144 C14.4150292,4.15512706 14.1081241,3.89811012 13.7070205,4.04089731 C13.3818835,4.15830011 13.2269116,4.54541204 13.3514968,4.87858215 C14.3998359,7.71846069 13.3758061,10.9708355 10.9205657,12.6176478 C8.84515833,14.0074431 6.19544344,13.9471552 4.19904129,12.5827443 L4.81589005,12.503418 C5.1562204,12.4589954 5.39627485,12.1353444 5.35677222,11.7799629 C5.31726959,11.4531389 5.04986717,11.2119872 4.74296212,11.2119872 C4.71865281,11.2119872 2.54296949,11.4912155 2.54296949,11.4912155 C2.37888164,11.5134269 2.22998711,11.5990992 2.1297112,11.7355403 C2.0294353,11.8719814 1.98385534,12.043326 2.00512599,12.2146706 L2.26948974,14.4326316 C2.31203103,14.7880131 2.62501341,15.041857 2.9623051,14.9942612 C3.30263545,14.9498385 3.5426899,14.6261876 3.5001486,14.2708061 L3.41810468,13.5949468 C5.83080378,15.3020469 9.06698079,15.4004114 11.5951491,13.7060035 C14.5396144,11.7323672 15.7672346,7.82317129 14.5092278,4.412144 Z" id="Shape"></path>
                </g>
            </g>
        </g>
    </g>
</svg>