<?xml version="1.0" encoding="UTF-8"?>
<svg width="24px" height="24px" viewBox="0 0 24 24" version="1.1" xmlns="http://www.w3.org/2000/svg" xmlns:xlink="http://www.w3.org/1999/xlink">
    <!-- Generator: Sketch 52.2 (67145) - http://www.bohemiancoding.com/sketch -->
    <title>wink</title>
    <desc>Created with Sketch.</desc>
    <g id="Page-1" stroke="none" stroke-width="1" fill="none" fill-rule="evenodd">
        <g id="13" transform="translate(-1037.000000, -591.000000)">
            <g id="wink" transform="translate(1037.000000, 591.000000)">
                <circle id="Oval" fill="#FFD93B" cx="12" cy="12" r="12"></circle>
                <path d="M24,12 C24,18.63 18.62625,24 12,24 C8.2275,24 4.86,22.26 2.65875,19.53375 C4.7175,21.19875 7.33875,22.1925 10.1925,22.1925 C16.81875,22.1925 22.1925,16.8225 22.1925,10.1925 C22.1925,7.33875 21.19875,4.7175 19.53375,2.65875 C22.25625,4.86 24,8.2275 24,12 Z" id="Path" fill="#F4C534"></path>
                <path d="M3.87975,9.46125 L3.441,10.37025 L4.38075,9.9945 C4.4985,9.94725 7.341,8.8665 10.443,11.4045 L11.4375,12.2115 C10.25625,8.289 5.66325,5.769 3.87975,9.46125 Z" id="Path" fill="#3E4347"></path>
                <path d="M20.559,10.3545 C20.559,12.5445 18.77475,14.32875 16.58475,14.32875 C14.3865,14.32875 12.6105,12.5445 12.6105,10.3545 C12.6105,8.1645 14.38725,6.38025 16.58475,6.38025 C18.77475,6.38025 20.559,8.1645 20.559,10.3545 Z" id="Path" fill="#F4C534"></path>
                <path d="M19.83525,10.3545 C19.75875,12.2055 18.23625,13.71375 16.44525,13.71375 C14.6475,13.71375 13.257,12.2055 13.3335,10.3545 C13.41,8.5035 14.92575,6.99525 16.7235,6.99525 C18.51525,6.99525 19.91175,8.5035 19.83525,10.3545 Z" id="Path" fill="#FFFFFF"></path>
                <path d="M17.36475,10.629 C17.36475,11.598 16.57725,12.3855 15.6075,12.3855 C14.6385,12.3855 13.85775,11.598 13.85775,10.629 C13.85775,9.66675 14.6385,8.87925 15.60825,8.87925 C16.57725,8.87925 17.36475,9.66675 17.36475,10.629 Z" id="Path" fill="#3E4347"></path>
                <path d="M16.584,10.34625 C16.449,10.4745 16.19325,10.434 16.005,10.245 C15.81,10.05 15.7695,9.79425 15.897,9.65925 C16.0245,9.531 16.28775,9.57825 16.476,9.7665 C16.665,9.95625 16.7115,10.212 16.584,10.34625 Z" id="Path" fill="#FFFFFF"></path>
                <path d="M19.67475,16.032 C18.63975,19.2795 15.59475,21.6345 12.00225,21.6345 C8.40225,21.6345 5.36475,19.2795 4.32225,16.032 C4.18725,15.597 4.57725,15.1845 5.01975,15.2745 C9.67725,16.212 14.32725,16.212 18.97725,15.2745 C19.42725,15.1845 19.81725,15.597 19.67475,16.032 Z" id="Path" fill="#3E4347"></path>
                <path d="M17.901,15.46425 C13.96875,16.13475 10.0365,16.13475 6.099,15.46425 C6.84225,17.46975 9.20025,18.01425 12,18.01425 C14.79975,18.015 17.15775,17.4705 17.901,15.46425 Z" id="Path" fill="#FFFFFF"></path>
                <path d="M12.00225,21.6345 C13.54125,21.6345 14.979,21.1995 16.2015,20.4495 C15.66975,19.29675 13.88925,18.44775 11.76975,18.44775 C9.78975,18.44775 8.10675,19.18875 7.4595,20.226 C8.7525,21.11175 10.314,21.6345 12.00225,21.6345 Z" id="Path" fill="#E24B4B"></path>
            </g>
        </g>
    </g>
</svg>