<?xml version="1.0" encoding="UTF-8"?>
<svg width="43px" height="48px" viewBox="0 0 43 48" version="1.1" xmlns="http://www.w3.org/2000/svg" xmlns:xlink="http://www.w3.org/1999/xlink">
    <!-- Generator: Sketch 52.2 (67145) - http://www.bohemiancoding.com/sketch -->
    <title>rocket (1)</title>
    <desc>Created with Sketch.</desc>
    <g id="Page-1" stroke="none" stroke-width="1" fill="none" fill-rule="evenodd">
        <g id="3" transform="translate(-128.000000, -37.000000)">
            <g id="rocket-(1)" transform="translate(153.988588, 57.449451) rotate(40.000000) translate(-153.988588, -57.449451) translate(140.655255, 32.449451)">
                <g id="Group">
                    <path d="M19.2031189,29.9073099 C19.2374269,29.5775828 19.475731,29.3049708 19.798538,29.22846 C20.1206628,29.1523392 20.4572125,29.2871345 20.6361598,29.5665692 L25.4135478,37.0352827 C26.1315789,38.162963 26.5108187,39.4657895 26.5108187,40.802924 L26.5108187,49.1229045 C26.5108187,49.4526316 26.3037037,49.7464912 25.9930799,49.8573099 C25.9077973,49.8877193 25.8187135,49.9026316 25.7310916,49.9026316 C25.5018519,49.9026316 25.2787524,49.8013645 25.1272904,49.6166667 L18.2734893,41.2395712 C18.1424951,41.0789474 18.0807992,40.8725146 18.1013645,40.6661793 L19.2031189,29.9073099 Z" id="Path" fill="#BED858"></path>
                    <path d="M7.30769981,29.9073099 C7.27339181,29.5775828 7.03508772,29.3049708 6.7122807,29.22846 C6.39015595,29.1523392 6.05360624,29.2871345 5.87465887,29.5665692 L1.09727096,37.0352827 C0.379239766,38.162963 1.42108547e-14,39.4657895 1.42108547e-14,40.802924 L1.42108547e-14,49.1229045 C1.42108547e-14,49.4526316 0.20711501,49.7464912 0.517738791,49.8573099 C0.603021442,49.8877193 0.692105263,49.9026316 0.779727096,49.9026316 C1.00896686,49.9026316 1.23206628,49.8013645 1.38352827,49.6166667 L8.23732943,41.2395712 C8.36832359,41.0789474 8.43001949,40.8725146 8.40945419,40.6661793 L7.30769981,29.9073099 Z" id="Path" fill="#98B138"></path>
                    <path d="M13.6567251,0.111403509 C13.410039,-0.037037037 13.1008772,-0.037037037 12.854191,0.111403509 C12.5206628,0.311695906 4.67846004,5.13693957 4.67846004,15.5947368 C4.67846004,19.8173489 5.72777778,31.0522417 7.11968811,41.7277778 C7.3214425,43.2766082 8.65019493,44.4446394 10.2088694,44.4446394 L16.3020468,44.4446394 C17.8607212,44.4446394 19.1894737,43.2766082 19.3912281,41.7277778 C20.7831384,31.0522417 21.8324561,19.8173489 21.8324561,15.5947368 C21.8324561,5.13693957 13.9902534,0.311598441 13.6567251,0.111403509 Z" id="Path" fill="#FFD200"></path>
                    <path d="M13.2554581,44.4446394 L10.2088694,44.4446394 C8.65019493,44.4446394 7.3214425,43.2766082 7.11968811,41.7277778 C5.72777778,31.0522417 4.67846004,19.8173489 4.67846004,15.5947368 C4.67846004,5.13693957 12.5206628,0.311598441 12.854191,0.111403509 C12.9770955,0.0374269006 13.1155945,0.000487329435 13.2540936,0.000194931774 L13.2555556,0.000194931774 L13.2555556,44.4446394 L13.2554581,44.4446394 Z" id="Path" fill="#FF9600"></path>
                    <circle id="Oval" fill="#53DCFF" cx="13.2554581" cy="16.3744639" r="4.67836257"></circle>
                    <path d="M13.2554581,49.902729 C12.8244639,49.902729 12.475731,49.5536062 12.475731,49.1230019 L12.475731,30.4095517 C12.475731,29.9789474 12.8244639,29.6298246 13.2554581,29.6298246 C13.6864522,29.6298246 14.0351852,29.9789474 14.0351852,30.4095517 L14.0351852,49.1230019 C14.0351852,49.5536062 13.6864522,49.902729 13.2554581,49.902729 Z" id="Path" fill="#98B138"></path>
                    <path d="M12.854191,0.111403509 C12.6311891,0.245321637 9.05497076,2.44951267 6.70692008,7.01773879 L19.8039961,7.01773879 C17.4559454,2.44951267 13.8797271,0.245224172 13.6567251,0.111403509 C13.410039,-0.0371345029 13.1008772,-0.0371345029 12.854191,0.111403509 Z" id="Path" fill="#BDD757"></path>
                    <path d="M13.2554581,0 C13.1164717,0 12.9774854,0.0371345029 12.854191,0.111403509 C12.6311891,0.245321637 9.05497076,2.44951267 6.70692008,7.01773879 L13.2554581,7.01773879 L13.2554581,0 Z" id="Path" fill="#98B138"></path>
                    <path d="M17.9338207,16.3744639 C17.9338207,13.7906433 15.8392788,11.6961014 13.2554581,11.6961014 L13.2554581,21.0528265 C15.8392788,21.0528265 17.9338207,18.9582846 17.9338207,16.3744639 Z" id="Path" fill="#B3F4FF"></path>
                </g>
                <path d="M13.2554581,21.8325536 C10.2461988,21.8325536 7.79736842,19.3841131 7.79736842,16.3744639 C7.79736842,13.3648148 10.2461988,10.9163743 13.2554581,10.9163743 C16.2647173,10.9163743 18.7135478,13.3648148 18.7135478,16.3744639 C18.7135478,19.3841131 16.2647173,21.8325536 13.2554581,21.8325536 Z M13.2554581,12.4758285 C11.105848,12.4758285 9.35682261,14.2248538 9.35682261,16.3744639 C9.35682261,18.5240741 11.105848,20.2730994 13.2554581,20.2730994 C15.4050682,20.2730994 17.1540936,18.5240741 17.1540936,16.3744639 C17.1540936,14.2248538 15.4050682,12.4758285 13.2554581,12.4758285 Z" id="Shape" fill="#5C546A" fill-rule="nonzero"></path>
            </g>
        </g>
    </g>
</svg>