<?xml version="1.0" encoding="UTF-8"?>
<svg width="120px" height="120px" viewBox="0 0 120 120" version="1.1" xmlns="http://www.w3.org/2000/svg" xmlns:xlink="http://www.w3.org/1999/xlink">
    <!-- Generator: Sketch 52.2 (67145) - http://www.bohemiancoding.com/sketch -->
    <title>target</title>
    <desc>Created with Sketch.</desc>
    <g id="Page-1" stroke="none" stroke-width="1" fill="none" fill-rule="evenodd">
        <g id="13-copy-2" transform="translate(-580.000000, -1750.000000)">
            <g id="target" transform="translate(640.000000, 1810.000000) scale(-1, 1) translate(-640.000000, -1810.000000) translate(580.000000, 1750.000000)">
                <path d="M119.767888,59.9464542 C119.767888,60.9456574 119.767888,62.1944223 119.767888,63.1936255 C119.268287,71.4363347 117.27012,78.9296414 114.022948,85.9233466 C104.281673,105.905498 83.7999203,119.892908 60.0712351,119.892908 C26.8510757,119.892908 0.124780876,92.9170518 0.124780876,59.9464542 C0.124780876,26.7260558 26.8510757,0 60.0712351,0 C93.0415936,0 119.767888,26.7260558 119.767888,59.9464542 Z" id="Path" fill="#E45163"></path>
                <circle id="Oval" fill="#FFFFFF" cx="59.8214343" cy="59.9464542" r="47.4576096"></circle>
                <circle id="Oval" fill="#E45163" cx="59.8214343" cy="59.9462151" r="35.2185657"></circle>
                <circle id="Oval" fill="#FFFFFF" cx="59.8214343" cy="59.9462151" r="22.7297211"></circle>
                <circle id="Oval" fill="#E45163" cx="59.8214343" cy="59.9464542" r="10.2408765"></circle>
                <path d="M119.767888,63.1933865 C119.268287,71.4360956 117.27012,78.9294024 114.022948,85.9231076 L105.280876,83.6751394 L102.783108,75.1826295 L59.0722709,63.4431873 C56.8243028,62.9435857 55.5752988,60.6956175 56.3247012,58.4476494 C56.8243028,56.1996813 59.0722709,54.9506773 61.320239,55.7000797 L104.781275,67.4395219 L111.275378,61.1952191 L119.767888,63.1933865 Z" id="Path" fill="#334A5E" opacity="0.2"></path>
                <path d="M95.7891633,23.7286853 C94.2905976,22.2301195 91.5430279,22.2301195 90.0442231,23.7286853 L57.3236653,56.4494821 C55.8250996,57.9480478 55.8250996,60.6956175 57.3236653,62.1944223 C58.8222311,63.692988 61.5698008,63.692988 63.0686056,62.1944223 L95.7894024,29.4736255 C97.2879681,27.9750598 97.2879681,25.22749 95.7891633,23.7286853 Z" id="Path" fill="#40596B"></path>
                <polygon id="Path" fill="#9292EF" points="105.031076 14.487012 90.2942629 28.9740239 87.0470916 15.7360159 101.783904 0.999203187"></polygon>
                <polygon id="Path" fill="#571ABC" points="103.782072 32.2211952 118.269084 17.7341833 105.031076 14.487012 90.2942629 28.9740239"></polygon>
            </g>
        </g>
    </g>
</svg>