<?xml version="1.0" encoding="UTF-8"?>
<svg width="70px" height="99px" viewBox="0 0 70 99" version="1.1" xmlns="http://www.w3.org/2000/svg" xmlns:xlink="http://www.w3.org/1999/xlink">
    <!-- Generator: Sketch 52.2 (67145) - http://www.bohemiancoding.com/sketch -->
    <title>rise</title>
    <desc>Created with Sketch.</desc>
    <g id="Page-1" stroke="none" stroke-width="1" fill="none" fill-rule="evenodd">
        <g id="13-copy-2" transform="translate(-603.000000, -2100.000000)">
            <g id="Group-7" transform="translate(540.000000, 2045.000000)">
                <g id="rise" transform="translate(63.000000, 55.000000)">
                    <path d="M69.7596771,54.9854519 L36.3386889,0.750876092 C35.7220187,-0.250292031 34.2776534,-0.250292031 33.6609834,0.750876092 L0.239995011,54.9854519 C-0.412467243,56.0445388 0.342152124,57.4150332 1.57922088,57.4150332 L11.354226,57.4150332 L11.354226,95.4112799 C11.354226,97.1676491 12.7657818,98.5915493 14.5069243,98.5915493 L55.4934935,98.5915493 C57.2346361,98.5915493 58.6461918,97.1676491 58.6461918,95.4112799 L58.6461918,57.4150332 L68.4211972,57.4150332 C69.6575201,57.4150332 70.4128851,56.0445388 69.7596771,54.9854519 Z" id="Path" fill="#FFE07D"></path>
                    <path d="M34.6910506,50.8833502 L21.4592162,50.8833502 C18.101554,50.8833502 15.8325639,47.3959926 17.1437002,44.2493968 L35.4929577,0.227897781 C34.7982181,-0.1971147 33.8366688,-0.0293664203 33.3636546,0.745434927 L0.237875126,54.9830269 C-0.408823903,56.0421726 0.339129881,57.4127433 1.56527156,57.4127433 L11.2539337,57.4127433 L11.2539337,95.411103 C11.2539337,97.16757 12.6530211,98.5915493 14.3787841,98.5915493 L34.6910506,98.5915493 L34.6910506,50.8833502 Z" id="Path" fill="#FFD064"></path>
                    <path d="M44.6598508,51.117216 L44.6598508,46.1302267 C44.6598508,40.8000682 40.4639136,36.4788732 35.2882595,36.4788732 L33.7263275,36.4788732 C28.5499345,36.4788732 24.3539973,40.8000682 24.3539973,46.1302267 L24.3539973,51.117216 C24.3539973,55.6468996 22.236449,57.9965826 21.0594588,58.9522827 C20.645702,59.2886038 20.5851163,59.9117873 20.9212937,60.3302864 C22.5083464,62.304842 27.0884863,67.0422535 34.5072934,67.0422535 C41.9253616,67.0422535 46.5055016,62.304842 48.0925544,60.3302864 C48.4287319,59.9117873 48.3688849,59.2886038 47.9543892,58.9522827 C46.7773989,57.9965826 44.6598508,55.6468996 44.6598508,51.117216 Z" id="Path" fill="#6E4848"></path>
                    <path d="M46.6451338,66.8774328 L41.7347232,65.0385962 C40.1400288,64.4419761 39.0840823,62.9200012 39.0840823,61.2199309 L39.0840823,57.1830986 L30.9151744,57.1830986 L30.9151744,61.2199309 C30.9151744,62.9200012 29.8592281,64.4419761 28.2645336,65.0385962 L23.354123,66.8774328 C21.7601716,67.4747949 20.7042254,68.9967698 20.7042254,70.69684 L20.7042254,74.9295775 L49.2957746,74.9295775 L49.2957746,70.69684 C49.2957746,68.9967698 48.2390851,67.4747949 46.6451338,66.8774328 Z" id="Path" fill="#ECBD83"></path>
                    <g id="Group" transform="translate(21.690141, 56.197183)" fill="#E2A975">
                        <path d="M8.64975208,0.138255807 L8.64975208,4.27073416 C8.64975208,4.39379684 8.63243597,4.51382113 8.62189585,4.63460481 C9.91006074,5.16103997 11.3149207,5.4580619 12.7875393,5.4580619 C14.260911,5.4580619 15.6650181,5.16103997 16.9539358,4.63460481 C16.9433955,4.51306133 16.9260794,4.39379684 16.9260794,4.27073416 L16.9260794,0.138255807 L8.64975208,0.138255807 Z" id="Path"></path>
                        <polygon id="Path" points="1.6465322 42.3943662 0.0549596442 21.5169943 4.82967712 21.5169943 4.82967712 42.3943662"></polygon>
                        <polygon id="Path" points="23.9292995 42.3943662 25.5208718 21.5169943 20.7461546 21.5169943 20.7461546 42.3943662"></polygon>
                    </g>
                    <path d="M34.5074152,59.1549296 C30.1513113,59.1549296 26.6197183,55.5436653 26.6197183,51.0883481 L26.6197183,41.4084507 L42.3943662,41.4084507 L42.3943662,51.0883481 C42.3943662,55.5436653 38.8627732,59.1549296 34.5074152,59.1549296 Z" id="Path" fill="#F6D190"></path>
                    <path d="M30.3836186,51.0883481 L30.3836186,41.4084507 L26.6197183,41.4084507 L26.6197183,51.0883481 C26.6197183,55.5436653 30.1677247,59.1549296 34.5440739,59.1549296 C35.1955039,59.1549296 35.8724213,59.0671663 36.4788732,58.9160611 C33.0155752,58.0529292 30.3836186,54.8797177 30.3836186,51.0883481 Z" id="Path" fill="#ECBD83"></path>
                    <path d="M31.0713253,50.2816901 L31.0511098,50.2816901 C30.2362134,50.2816901 29.5774648,49.6199048 29.5774648,48.8028168 C29.5774648,47.9857289 30.2369104,47.3239437 31.0511098,47.3239437 C31.8653091,47.3239437 32.5352113,47.9857289 32.5352113,48.8028168 C32.5352113,49.6199048 31.8855246,50.2816901 31.0713253,50.2816901 Z" id="Path" fill="#6E4848"></path>
                    <path d="M38.9586495,50.2816901 L38.9384338,50.2816901 C38.1242344,50.2816901 37.4647887,49.6199048 37.4647887,48.8028168 C37.4647887,47.9857289 38.1242344,47.3239437 38.9384338,47.3239437 C39.7533302,47.3239437 40.4225352,47.9857289 40.4225352,48.8028168 C40.4225352,49.6199048 39.7735459,50.2816901 38.9586495,50.2816901 Z" id="Path" fill="#6E4848"></path>
                    <path d="M45.3521127,46.3380282 L45.3521127,45.5796317 C45.3521127,40.5535506 41.1579292,36.4788732 35.9844384,36.4788732 L34.4231593,36.4788732 C31.1661865,36.4788732 28.2984256,38.0910937 26.6197183,40.5413532 C28.9719764,42.0531236 36.4201784,46.3380282 45.3521127,46.3380282 Z" id="Path" fill="#966A5B"></path>
                    <path d="M46.6451338,66.9771176 L44.2270836,66.0578449 C42.403514,69.6746545 38.9637001,72.1273035 35.0007431,72.1273035 C31.037043,72.1273035 27.6002015,69.6731476 25.776632,66.056338 L23.354123,66.977871 C21.7601716,67.5836866 20.7042254,69.1291192 20.7042254,70.8553922 L20.7042254,77.3475653 C20.7042254,77.954888 21.0445656,78.5094655 21.5818274,78.7769585 L27.1446807,81.5257338 L27.1446807,92.6760563 L42.8545763,92.6760563 L42.8545763,81.5257338 L42.9073365,81.5257338 L48.4181726,78.7769585 C48.9554345,78.5094655 49.2957746,77.954888 49.2957746,77.3475653 L49.2957746,70.8553922 C49.2957746,69.1291192 48.2390851,67.5836866 46.6451338,66.9771176 Z" id="Path" fill="#A4CCFF"></path>
                    <polygon id="Path" fill="#6F6571" points="26.6197183 92.6760563 42.3943662 92.6760563 42.3943662 98.5915493 26.6197183 98.5915493"></polygon>
                    <path d="M29.7752448,86.4785592 L29.7752448,85.2950476 C29.7752448,84.1217955 29.0999666,83.0489404 28.0307138,82.524238 L26.6197183,81.8309859 L26.6197183,92.6760563 L42.3943662,92.6760563 L42.3943662,89.5776742 L32.9300251,89.5776742 C31.1869866,89.5776742 29.7752448,88.1904374 29.7752448,86.4785592 Z" id="Path" fill="#8BB3EA"></path>
                </g>
            </g>
        </g>
    </g>
</svg>