<?xml version="1.0" encoding="UTF-8"?>
<svg width="75px" height="76px" viewBox="0 0 75 76" version="1.1" xmlns="http://www.w3.org/2000/svg" xmlns:xlink="http://www.w3.org/1999/xlink">
    <!-- Generator: Sketch 52.2 (67145) - http://www.bohemiancoding.com/sketch -->
    <title>success (1)</title>
    <desc>Created with Sketch.</desc>
    <g id="Page-1" stroke="none" stroke-width="1" fill="none" fill-rule="evenodd">
        <g id="13-copy-2" transform="translate(-598.000000, -2345.000000)">
            <g id="Group-7" transform="translate(540.000000, 2045.000000)">
                <g id="success-(1)" transform="translate(58.000000, 300.000000)">
                    <path d="M55.1490784,28.001976 C53.9354325,28.001976 52.9518127,27.0183563 52.9518127,25.8047104 L52.9518127,14.0378952 C52.9518127,12.8242493 53.9354325,11.8406295 55.1490784,11.8406295 C56.3627243,11.8406295 57.346344,12.8242493 57.346344,14.0378952 L57.346344,25.8047104 C57.346344,27.0183563 56.3627243,28.001976 55.1490784,28.001976 Z" id="Path" fill="#27D9F7"></path>
                    <path d="M10.4335784,58.9090348 L8.08067314,58.9090348 C3.62491611,58.9090348 0,62.5339509 0,66.9897079 L0,72.8731156 C0,74.0867615 0.983619727,75.0703812 2.19726563,75.0703812 L16.3175583,75.0703812 C17.530632,75.0703812 18.5142517,74.0867615 18.5142517,72.8731156 L18.5142517,66.9897079 C18.5142517,62.5339509 14.8893356,58.9090348 10.4335784,58.9090348 Z" id="Path" fill="#EBF6FF"></path>
                    <path d="M24.5544434,47.1422196 L22.2015381,47.1422196 C17.7452087,47.1422196 14.1202926,50.7671355 14.1202926,55.2223206 L14.1202926,72.8731156 C14.1202926,74.0867615 15.1039124,75.0703812 16.3175583,75.0703812 L30.4378509,75.0703812 C31.6514969,75.0703812 32.6351165,74.0867615 32.6351165,72.8731156 L32.6351165,55.2223206 C32.6351165,50.7671355 29.0102005,47.1422196 24.5544434,47.1422196 Z" id="Path" fill="#B2DCFF"></path>
                    <path d="M38.6753083,35.3748322 L36.3218307,35.3748322 C31.8660735,35.3748322 28.2411576,38.9997482 28.2411576,43.4555054 L28.2411576,72.8731156 C28.2411576,74.0867615 29.2247771,75.0703812 30.4378509,75.0703812 L44.5587158,75.0703812 C45.7717896,75.0703812 46.7559814,74.0867615 46.7559814,72.8731156 L46.7559814,43.4555054 C46.7559814,38.9997482 43.1310653,35.3748322 38.6753083,35.3748322 Z" id="Path" fill="#73BCFF"></path>
                    <path d="M66.9158936,23.6074447 L50.4421233,23.6074447 C45.9863663,23.6074447 42.3614502,27.232933 42.3614502,31.6886902 L42.3614502,72.8731156 C42.3614502,74.0867615 43.3450699,75.0703812 44.5587158,75.0703812 L72.7998734,75.0703812 C74.0129471,75.0703812 74.997139,74.0867615 74.997139,72.8731156 L74.997139,31.6886902 C74.997139,27.232933 71.3722229,23.6074447 66.9158936,23.6074447 Z" id="Path" fill="#0095FF"></path>
                    <path d="M74.287033,12.4179841 L70.0235367,8.15391533 L74.3534089,3.82404331 C74.9822616,3.1957626 75.1699447,2.25105293 74.8300553,1.42936699 C74.4895935,0.608825684 73.6885071,0.0732421875 72.7998734,0.0732421875 L55.1490784,0.0732421875 C53.9354325,0.0732421875 52.9518127,1.05686191 52.9518127,2.27050781 L52.9518127,14.0378952 C52.9518127,15.2509689 53.9354325,16.2345886 55.1490784,16.2345886 L72.7998734,16.2345886 C72.8010177,16.2345886 72.80159,16.2345886 72.8027344,16.2345886 C74.0163803,16.2345886 75,15.2509689 75,14.0378952 C75,13.3964539 74.7253418,12.8196716 74.287033,12.4179841 Z" id="Path" fill="#FF6194"></path>
                    <path d="M74.287033,12.4179841 L70.0235367,8.15391533 L52.9518127,8.15391533 L52.9518127,14.0378952 C52.9518127,15.2509689 53.9354325,16.2351608 55.1490784,16.2351608 L72.7998734,16.2351608 C72.8010177,16.2345886 72.80159,16.2345886 72.8027344,16.2351608 C74.0163803,16.2351608 75,15.2509689 75,14.0378952 C75,13.3964539 74.7253418,12.8196716 74.287033,12.4179841 Z" id="Path" fill="#FF39B1"></path>
                </g>
            </g>
        </g>
    </g>
</svg>