<?xml version="1.0" encoding="UTF-8"?>
<svg width="75px" height="75px" viewBox="0 0 75 75" version="1.1" xmlns="http://www.w3.org/2000/svg" xmlns:xlink="http://www.w3.org/1999/xlink">
    <!-- Generator: Sketch 52.2 (67145) - http://www.bohemiancoding.com/sketch -->
    <title>progress</title>
    <desc>Created with Sketch.</desc>
    <g id="Page-1" stroke="none" stroke-width="1" fill="none" fill-rule="evenodd">
        <g id="13-copy-2" transform="translate(-598.000000, -2521.000000)">
            <g id="Group-7" transform="translate(540.000000, 2045.000000)">
                <g id="progress" transform="translate(58.000000, 476.000000)">
                    <path d="M37.5,0 C27.4829865,0 18.0662155,3.90071865 10.9834671,10.9834671 C3.90071865,18.0662155 0,27.4835587 0,37.5 C0,44.092369 1.73606865,50.5771638 5.02052314,56.2540055 C5.42793281,56.9583894 6.16607666,57.3514938 6.92482002,57.3514938 C7.2973251,57.3514938 7.67498013,57.2565079 8.02116387,57.0568084 L18.2138443,51.1722565 C18.7185287,50.8804321 19.0870285,50.4003524 19.2375183,49.8373031 C19.3880082,49.2736816 19.3090438,48.6734391 19.0166473,48.1687545 C17.1489715,44.9409485 16.1619186,41.2513733 16.1619186,37.5 C16.1619186,25.7343293 25.7343293,16.1619186 37.5,16.1619186 C38.7130737,16.1619186 39.6972656,15.178299 39.6972656,13.964653 L39.6972656,2.19726562 C39.6972656,0.983619727 38.7130737,0 37.5,0 Z" id="Path" fill="#EBF6FF"></path>
                    <path d="M29.1790008,48.0182648 C28.6165238,48.0182648 28.0546188,47.8036881 27.6254654,47.3745346 C26.7671585,46.5168 26.7671585,45.1251984 27.6254654,44.2674637 L44.2674637,27.6254654 C45.1251984,26.7671585 46.5168,26.7671585 47.3745346,27.6254654 C48.2328415,28.4832 48.2328415,29.8748016 47.3745346,30.7325363 L30.7325363,47.3745346 C30.3033829,47.8036881 29.7409058,48.0182648 29.1790008,48.0182648 Z" id="Path" fill="#005AB1"></path>
                    <path d="M44.1570281,46.3537216 C43.5785294,46.3537216 43.0114746,46.1196899 42.6029206,45.7105636 C42.1943665,45.3008651 41.9597625,44.7349548 41.9597625,44.156456 C41.9597625,43.5779572 42.1943665,43.0126189 42.6029206,42.6023483 C43.0114746,42.1937943 43.5785294,41.9591903 44.1570281,41.9591903 C44.735527,41.9591903 45.3014373,42.1937943 45.7099915,42.6023483 C46.1202621,43.0126189 46.3542937,43.5779572 46.3542937,44.156456 C46.3542937,44.7349548 46.1196899,45.3008651 45.7099915,45.7105636 C45.3014373,46.1196899 44.735527,46.3537216 44.1570281,46.3537216 Z" id="Path" fill="#00345C"></path>
                    <path d="M30.8429719,33.0413818 C30.264473,33.0413818 29.6991349,32.8056335 29.2888641,32.3970794 C28.8803101,31.9885254 28.6457062,31.4214706 28.6457062,30.8429719 C28.6457062,30.2656173 28.8803101,29.6985627 29.2888641,29.2900085 C29.6991349,28.8797379 30.264473,28.6457062 30.8429719,28.6457062 C31.4220428,28.6457062 31.9873811,28.8797379 32.3970794,29.2900085 C32.8056335,29.6985627 33.0402375,30.2656173 33.0402375,30.8429719 C33.0402375,31.4214706 32.8056335,31.9885254 32.3970794,32.3970794 C31.9868087,32.8056335 31.4220428,33.0413818 30.8429719,33.0413818 Z" id="Path" fill="#005AB1"></path>
                    <path d="M64.0165329,10.9834671 C56.9332122,3.90071865 47.5164413,0 37.5,0 C36.2863541,0 35.3027344,0.983619727 35.3027344,2.19726562 L35.3027344,13.964653 C35.3027344,15.178299 36.2863541,16.1619186 37.5,16.1619186 C49.2656707,16.1619186 58.8375091,25.7343293 58.8375091,37.5 C58.8375091,49.2656707 49.2656707,58.8375091 37.5,58.8375091 C29.906845,58.8375091 22.8246688,54.7496795 19.0166473,48.1693269 C18.4095382,47.1193314 17.066574,46.7605591 16.0165787,47.3665238 L5.82389824,53.2510758 C5.31921387,53.5423279 4.95071411,54.0229797 4.80022427,54.5860291 C4.64973457,55.1490784 4.72869873,55.7493209 5.02109531,56.2540055 C8.25920098,61.8507385 12.9146575,66.5439606 18.4850692,69.8272705 C24.2259979,73.2112884 30.8012008,75 37.5,75 C47.5164413,75 56.9332122,71.0992813 64.0165329,64.0165329 C71.0992813,56.9337845 75,47.5164413 75,37.5 C75,27.4835587 71.0992813,18.0662155 64.0165329,10.9834671 Z" id="Path" fill="#80D398"></path>
                    <path d="M64.0165329,10.9834671 C56.9332122,3.90071865 47.5164413,0 37.5,0 C36.2863541,0 35.3027344,0.983619727 35.3027344,2.19726562 L35.3027344,13.964653 C35.3027344,15.178299 36.2863541,16.1619186 37.5,16.1619186 C49.2656707,16.1619186 58.8375091,25.7343293 58.8375091,37.5 C58.8375091,49.2656707 49.2656707,58.8375091 37.5,58.8375091 L37.5,75 C47.5164413,75 56.9332122,71.0992813 64.0165329,64.0165329 C71.0992813,56.9337845 75,47.5164413 75,37.5 C75,27.4835587 71.0992813,18.0662155 64.0165329,10.9834671 Z" id="Path" fill="#00B44B"></path>
                    <path d="M37.5,75 C36.2863541,75 35.3027344,74.0163803 35.3027344,72.8027344 L35.3027344,61.0347747 C35.3027344,59.821701 36.2863541,58.8375091 37.5,58.8375091 C38.7130737,58.8375091 39.6972656,59.821701 39.6972656,61.0347747 L39.6972656,72.8027344 C39.6972656,74.0163803 38.7130737,75 37.5,75 Z" id="Path" fill="#00884A"></path>
                    <path d="M55.1530838,70.2707291 C54.3937683,70.2707291 53.6550521,69.8770523 53.2482146,69.1720963 L47.3648071,58.9805603 C46.7576981,57.9299927 47.1181869,56.5858841 48.1687545,55.9793473 C49.2198943,55.3722381 50.5634309,55.7327271 51.1705399,56.7832947 L57.0539474,66.9748307 C57.6610564,68.0253983 57.3005676,69.3695068 56.25,69.9760437 C55.9038163,70.1757431 55.5261612,70.2707291 55.1530838,70.2707291 Z" id="Path" fill="#00884A"></path>
                    <path d="M68.0711747,57.349205 C67.6980973,57.349205 67.3204422,57.2542191 66.9748307,57.0539474 L56.7838668,51.1705399 C55.7327271,50.5634309 55.3728104,49.2198943 55.9793473,48.1687545 C56.5864563,47.1176147 57.9299927,46.7571258 58.9811325,47.3648071 L69.1720963,53.248787 C70.2226639,53.8553238 70.5831527,55.1988602 69.9760437,56.25 C69.5692062,56.9549561 68.83049,57.349205 68.0711747,57.349205 Z" id="Path" fill="#00884A"></path>
                    <path d="M72.8027344,39.6972656 L61.0347747,39.6972656 C59.821701,39.6972656 58.8375091,38.7136459 58.8375091,37.5 C58.8375091,36.2863541 59.821701,35.3027344 61.0347747,35.3027344 L72.8027344,35.3027344 C74.0158081,35.3027344 75,36.2863541 75,37.5 C75,38.7136459 74.0158081,39.6972656 72.8027344,39.6972656 Z" id="Path" fill="#00884A"></path>
                    <path d="M57.8842163,27.9298783 C57.1249008,27.9298783 56.3861848,27.5362015 55.9793473,26.8306731 C55.3722381,25.7801057 55.7327271,24.435997 56.7832947,23.8294601 L66.9742585,17.9460526 C68.024826,17.3383712 69.3689347,17.6988602 69.9754715,18.75 C70.5825806,19.8011398 70.2220916,21.1446762 69.1715241,21.751213 L58.9805603,27.6351929 C58.6349487,27.8348922 58.2567215,27.9298783 57.8842163,27.9298783 Z" id="Path" fill="#00884A"></path>
                    <path d="M49.2656707,19.3153381 C48.8925935,19.3153381 48.5149383,19.2209244 48.1693269,19.0206527 C47.1181869,18.4141159 46.7576981,17.0700073 47.3648071,16.0194397 L53.248787,5.82847588 C53.8553238,4.77733608 55.1988602,4.41684727 56.25,5.0239563 C57.3011398,5.63106533 57.6610564,6.97460171 57.0539474,8.0257415 L51.1705399,18.2167053 C50.7637024,18.9216614 50.0249862,19.3153381 49.2656707,19.3153381 Z" id="Path" fill="#00884A"></path>
                    <path d="M19.846344,70.2707291 C19.4738388,70.2707291 19.0961837,70.1757431 18.75,69.9760437 C17.6988602,69.3695068 17.3389436,68.0253983 17.9460526,66.9748307 L23.8294601,56.7832947 C24.435997,55.7327271 25.7795333,55.3722381 26.8312455,55.9793473 C27.8818131,56.5858841 28.2423019,57.9299927 27.6351929,58.9805603 L21.7517854,69.1720963 C21.3443757,69.8764802 20.6062317,70.2707291 19.846344,70.2707291 Z" id="Path" fill="#00B44B"></path>
                    <path d="M47.3745346,27.6254654 C46.5162277,26.7671585 45.1251984,26.7671585 44.2668914,27.6254654 L37.5,34.3923568 L37.5,40.6076432 L47.3745346,30.7325363 C48.2328415,29.8748016 48.2328415,28.4832 47.3745346,27.6254654 Z" id="Path" fill="#00345C"></path>
                </g>
            </g>
        </g>
    </g>
</svg>