<?xml version="1.0" encoding="UTF-8"?>
<svg width="28px" height="27px" viewBox="0 0 28 27" version="1.1" xmlns="http://www.w3.org/2000/svg" xmlns:xlink="http://www.w3.org/1999/xlink">
    <!-- Generator: Sketch 52.2 (67145) - http://www.bohemiancoding.com/sketch -->
    <title>information (2)</title>
    <desc>Created with Sketch.</desc>
    <g id="Page-1" stroke="none" stroke-width="1" fill="none" fill-rule="evenodd">
        <g id="6" transform="translate(-495.000000, -177.000000)" fill="#FFA42E">
            <g id="Group-16" transform="translate(475.000000, 163.000000)">
                <g id="information-(2)" transform="translate(20.103520, 14.000000)">
                    <path d="M13.5698758,0 C6.08744627,0 0,6.05618182 0,13.5000818 C0,20.9439818 6.08744627,27 13.5698758,27 C21.0523053,27 27.1397516,20.9439818 27.1397516,13.5000818 C27.1397516,6.05618182 21.0523053,0 13.5698758,0 Z M13.5698758,24.5454545 C7.44780576,24.5454545 2.46725014,19.5905455 2.46725014,13.5000818 C2.46725014,7.40961818 7.44780576,2.45454545 13.5698758,2.45454545 C19.6919458,2.45454545 24.6725014,7.40961818 24.6725014,13.5000818 C24.6725014,19.5905455 19.6918636,24.5454545 13.5698758,24.5454545 Z" id="Shape" fill-rule="nonzero"></path>
                    <path d="M13.5697113,5.72727273 C12.6629146,5.72727273 11.9252068,6.46167273 11.9252068,7.36437273 C11.9252068,8.26625455 12.6629146,9 13.5697113,9 C14.476508,9 15.2142158,8.26625455 15.2142158,7.36437273 C15.2142158,6.46167273 14.476508,5.72727273 13.5697113,5.72727273 Z" id="Path"></path>
                    <path d="M13.5698758,11.4545455 C12.8885858,11.4545455 12.3362507,12.0040364 12.3362507,12.6818182 L12.3362507,20.0454545 C12.3362507,20.7232364 12.8885858,21.2727273 13.5698758,21.2727273 C14.2511658,21.2727273 14.8035008,20.7232364 14.8035008,20.0454545 L14.8035008,12.6818182 C14.8035008,12.0040364 14.2511658,11.4545455 13.5698758,11.4545455 Z" id="Path"></path>
                </g>
            </g>
        </g>
    </g>
</svg>